

<svg  style="display: none;" xmlns="http://www.w3.org/2000/svg" >
    <defs> <symbol id="clap-cine" viewBox="0 0 17 16" fill="none">
        <path d="M15.8759 7.12492H6.97666L15.4071 4.89914C15.4869 4.87811 15.5618 4.84149 15.6273 4.79138C15.6929 4.74128 15.7479 4.67869 15.7892 4.60722C15.8304 4.53575 15.8571 4.45681 15.8677 4.37497C15.8783 4.29313 15.8726 4.21 15.8509 4.13038L15.2134 1.78663C15.1256 1.47131 14.9172 1.20325 14.6332 1.0405C14.3493 0.877749 14.0126 0.833417 13.6962 0.917104L1.79853 4.05773C1.64012 4.09885 1.4915 4.17116 1.36137 4.27043C1.23125 4.3697 1.12224 4.49393 1.04072 4.63585C0.958747 4.77603 0.905786 4.93126 0.884983 5.09231C0.864181 5.25336 0.875962 5.41695 0.919627 5.57335L1.50088 7.71554C1.50088 7.72648 1.50088 7.7382 1.50088 7.74992V14.6249C1.50088 14.9564 1.63257 15.2744 1.86699 15.5088C2.10141 15.7432 2.41936 15.8749 2.75088 15.8749H15.2509C15.5824 15.8749 15.9003 15.7432 16.1348 15.5088C16.3692 15.2744 16.5009 14.9564 16.5009 14.6249V7.74992C16.5009 7.58416 16.435 7.42519 16.3178 7.30797C16.2006 7.19076 16.0416 7.12492 15.8759 7.12492ZM14.0134 2.12492L14.4821 3.84914L11.8579 4.54679L9.66025 3.27492L14.0134 2.12492ZM5.05947 4.48976L7.25635 5.75851L2.6001 6.98742L2.13135 5.26242L5.05947 4.48976Z" fill="currentColor"/>
    </symbol> </defs>

    <!-- discord -->
    <defs> <symbol id="discord" viewBox="0 0 20 15" fill="none">
    <path d="M19.3365 10.6242L17.031 1.53122C16.9703 1.2945 16.8419 1.08061 16.6615 0.915761C16.4811 0.75091 16.2566 0.642251 16.0154 0.603095L13.1982 0.140595C12.8876 0.0906432 12.5696 0.157988 12.3059 0.32953C12.0422 0.501073 11.8518 0.76455 11.7716 1.06872L11.7552 1.13513C11.7446 1.17732 11.7429 1.22126 11.7502 1.26414C11.7576 1.30702 11.7738 1.3479 11.7978 1.38416C11.8219 1.42041 11.8532 1.45125 11.8899 1.47469C11.9265 1.49813 11.9677 1.51366 12.0107 1.52028C12.6571 1.61516 13.2949 1.76199 13.9177 1.95934C14.0734 2.00633 14.2054 2.11077 14.287 2.2515C14.3685 2.39223 14.3934 2.55871 14.3568 2.71716C14.3357 2.79973 14.2979 2.87712 14.2458 2.94456C14.1938 3.01201 14.1284 3.06809 14.0539 3.10936C13.9793 3.15063 13.8971 3.17621 13.8123 3.18454C13.7275 3.19287 13.6418 3.18376 13.5607 3.15778C11.2496 2.44902 8.77955 2.4463 6.46692 3.14997C6.31041 3.20259 6.13965 3.19291 5.9901 3.12293C5.84054 3.05296 5.72368 2.92806 5.6638 2.77419C5.63533 2.69523 5.62306 2.61135 5.62772 2.52755C5.63238 2.44374 5.65387 2.36174 5.69091 2.28642C5.72795 2.2111 5.77978 2.14402 5.8433 2.08916C5.90683 2.03431 5.98076 1.99282 6.06067 1.96716C6.6913 1.76629 7.33716 1.61684 7.99192 1.52028C8.03492 1.51366 8.07606 1.49813 8.11271 1.47469C8.14937 1.45125 8.18072 1.42041 8.20477 1.38416C8.22882 1.3479 8.24503 1.30702 8.25237 1.26414C8.25971 1.22126 8.25801 1.17732 8.24739 1.13513L8.23098 1.06872C8.15079 0.764291 7.96008 0.500645 7.69604 0.329196C7.43201 0.157748 7.11358 0.0907883 6.80286 0.141376L3.98411 0.603876C3.74299 0.642974 3.51851 0.751518 3.33812 0.916221C3.15774 1.08092 3.02929 1.29464 2.96848 1.53122L0.663015 10.6242C0.590728 10.91 0.622189 11.2122 0.751799 11.477C0.881409 11.7418 1.10076 11.952 1.37083 12.0703L6.6052 14.3914C6.76259 14.4613 6.93263 14.4984 7.10486 14.5002C7.2771 14.5021 7.44789 14.4687 7.60674 14.4021C7.7656 14.3355 7.90915 14.2371 8.0286 14.113C8.14804 13.9889 8.24084 13.8417 8.3013 13.6804L8.57395 12.9422C8.5902 12.8979 8.59624 12.8506 8.59162 12.8037C8.58699 12.7568 8.57183 12.7116 8.54726 12.6714C8.52269 12.6312 8.48935 12.5971 8.44973 12.5716C8.41012 12.5461 8.36525 12.5299 8.31848 12.5242C7.55953 12.4323 6.81074 12.2701 6.08176 12.0398C5.9267 11.9927 5.79526 11.8885 5.71393 11.7483C5.6326 11.6082 5.60743 11.4424 5.64348 11.2843C5.66438 11.2015 5.70203 11.1239 5.7541 11.0562C5.80617 10.9885 5.87155 10.9322 5.94623 10.8908C6.0209 10.8494 6.10327 10.8237 6.18825 10.8153C6.27324 10.8069 6.35904 10.8161 6.44036 10.8422C8.7601 11.5526 11.2394 11.5526 13.5591 10.8422C13.6403 10.8162 13.726 10.8071 13.8109 10.8155C13.8957 10.8239 13.9779 10.8495 14.0525 10.8909C14.1271 10.9322 14.1924 10.9884 14.2445 11.0559C14.2965 11.1235 14.3342 11.2009 14.3552 11.2836C14.3917 11.4417 14.3667 11.6078 14.2853 11.7482C14.2039 11.8886 14.0723 11.9928 13.9169 12.0398C13.1882 12.2702 12.4397 12.4324 11.681 12.5242C11.6342 12.5299 11.5893 12.5461 11.5497 12.5716C11.5101 12.5971 11.4768 12.6312 11.4522 12.6714C11.4276 12.7116 11.4125 12.7568 11.4079 12.8037C11.4032 12.8506 11.4093 12.8979 11.4255 12.9422L11.6982 13.6804C11.7587 13.8417 11.8516 13.9888 11.971 14.1128C12.0905 14.2369 12.234 14.3352 12.3929 14.4018C12.5517 14.4683 12.7224 14.5018 12.8946 14.5C13.0668 14.4982 13.2369 14.4612 13.3943 14.3914L18.6286 12.0703C18.8987 11.952 19.1181 11.7418 19.2477 11.477C19.3773 11.2122 19.4087 10.91 19.3365 10.6242ZM7.18723 8.87497C7.00181 8.87497 6.82056 8.81999 6.66639 8.71697C6.51222 8.61396 6.39205 8.46754 6.3211 8.29623C6.25014 8.12493 6.23157 7.93643 6.26775 7.75457C6.30392 7.57272 6.39321 7.40567 6.52432 7.27456C6.65543 7.14345 6.82248 7.05416 7.00434 7.01798C7.18619 6.98181 7.37469 7.00038 7.546 7.07133C7.7173 7.14229 7.86372 7.26245 7.96674 7.41662C8.06975 7.57079 8.12473 7.75205 8.12473 7.93747C8.12473 8.18611 8.02596 8.42457 7.85015 8.60038C7.67433 8.7762 7.43587 8.87497 7.18723 8.87497ZM12.8122 8.87497C12.6268 8.87497 12.4456 8.81999 12.2914 8.71697C12.1372 8.61396 12.0171 8.46754 11.9461 8.29623C11.8751 8.12493 11.8566 7.93643 11.8927 7.75457C11.9289 7.57272 12.0182 7.40567 12.1493 7.27456C12.2804 7.14345 12.4475 7.05416 12.6293 7.01798C12.8112 6.98181 12.9997 7.00038 13.171 7.07133C13.3423 7.14229 13.4887 7.26245 13.5917 7.41662C13.6947 7.57079 13.7497 7.75205 13.7497 7.93747C13.7497 8.18611 13.651 8.42457 13.4751 8.60038C13.2993 8.7762 13.0609 8.87497 12.8122 8.87497Z" fill="currentColor"/>
    </symbol></defs>

    <!--  llllllllll apropos droite décos -->
    <!-- tickets étoilés -->
    <defs> <symbol id="tickets-etoiles" viewBox="0 0 222 152" fill="none">
        <mask id="path-1-outside-1_295_2912" maskUnits="userSpaceOnUse" x="63.6743" y="71.1346" width="158.084" height="80.1653" fill="black">
        <rect fill="white" x="63.6743" y="71.1346" width="158.084" height="80.1653"/>
        <path fill-rule="evenodd" clip-rule="evenodd" d="M219.71 117.006L219.698 128.325C217.36 129.14 215.679 131.374 215.677 134.004C215.674 136.635 217.349 138.872 219.686 139.693L219.686 139.97C219.681 145.07 215.542 149.2 210.442 149.194L75.1011 149.053C70.0012 149.047 65.8713 144.909 65.8766 139.809L65.8767 139.708C68.5269 139.092 70.5038 136.705 70.5068 133.852C70.5098 130.999 68.5378 128.607 65.889 127.986L65.9004 117.022C68.5506 116.406 70.5275 114.019 70.5305 111.166C70.5335 108.312 68.5616 105.921 65.9127 105.3L65.9242 94.3353C68.5743 93.7196 70.5513 91.3324 70.5543 88.4793C70.5572 85.6262 68.5853 83.2349 65.9364 82.6137L65.9367 82.3711C65.942 77.2712 70.0807 73.1412 75.1806 73.1466L107.011 73.1799C106.997 73.345 106.99 73.512 106.99 73.6807C106.986 77.0034 109.661 79.6999 112.965 79.7033C116.268 79.7068 118.949 77.016 118.953 73.6932C118.953 73.5245 118.946 73.3575 118.933 73.1924L210.522 73.2882C215.622 73.2935 219.752 77.4322 219.746 82.5321L219.746 82.9521C217.407 83.7676 215.727 86.0017 215.724 88.6318C215.721 91.2619 217.397 93.4996 219.734 94.32L219.722 105.638C217.383 106.454 215.703 108.688 215.7 111.318C215.698 113.948 217.373 116.186 219.71 117.006Z"/>
        </mask>
        <path fill-rule="evenodd" clip-rule="evenodd" d="M219.71 117.006L219.698 128.325C217.36 129.14 215.679 131.374 215.677 134.004C215.674 136.635 217.349 138.872 219.686 139.693L219.686 139.97C219.681 145.07 215.542 149.2 210.442 149.194L75.1011 149.053C70.0012 149.047 65.8713 144.909 65.8766 139.809L65.8767 139.708C68.5269 139.092 70.5038 136.705 70.5068 133.852C70.5098 130.999 68.5378 128.607 65.889 127.986L65.9004 117.022C68.5506 116.406 70.5275 114.019 70.5305 111.166C70.5335 108.312 68.5616 105.921 65.9127 105.3L65.9242 94.3353C68.5743 93.7196 70.5513 91.3324 70.5543 88.4793C70.5572 85.6262 68.5853 83.2349 65.9364 82.6137L65.9367 82.3711C65.942 77.2712 70.0807 73.1412 75.1806 73.1466L107.011 73.1799C106.997 73.345 106.99 73.512 106.99 73.6807C106.986 77.0034 109.661 79.6999 112.965 79.7033C116.268 79.7068 118.949 77.016 118.953 73.6932C118.953 73.5245 118.946 73.3575 118.933 73.1924L210.522 73.2882C215.622 73.2935 219.752 77.4322 219.746 82.5321L219.746 82.9521C217.407 83.7676 215.727 86.0017 215.724 88.6318C215.721 91.2619 217.397 93.4996 219.734 94.32L219.722 105.638C217.383 106.454 215.703 108.688 215.7 111.318C215.698 113.948 217.373 116.186 219.71 117.006Z" fill="#06080F"/>
        <path d="M219.698 128.325L220.345 130.179L221.661 129.721L221.663 128.327L219.698 128.325ZM219.71 117.006L221.674 117.008L221.676 115.615L220.361 115.153L219.71 117.006ZM219.686 139.693L221.651 139.695L221.652 138.301L220.337 137.839L219.686 139.693ZM210.442 149.194L210.44 151.158L210.442 149.194ZM75.1011 149.053L75.1032 147.088L75.1011 149.053ZM65.8767 139.708L65.4322 137.795L63.9141 138.147L63.9125 139.706L65.8767 139.708ZM65.889 127.986L63.9247 127.984L63.9231 129.543L65.4405 129.899L65.889 127.986ZM65.9004 117.022L65.456 115.108L63.9378 115.461L63.9362 117.02L65.9004 117.022ZM65.9127 105.3L63.9485 105.298L63.9468 106.856L65.4642 107.212L65.9127 105.3ZM65.9242 94.3353L65.4797 92.422L63.9616 92.7747L63.9599 94.3332L65.9242 94.3353ZM65.9364 82.6137L63.9722 82.6116L63.9706 84.1702L65.488 84.526L65.9364 82.6137ZM65.9367 82.3711L67.9009 82.3732L65.9367 82.3711ZM107.011 73.1799L108.968 73.3423L109.145 71.2179L107.013 71.2156L107.011 73.1799ZM118.933 73.1924L118.935 71.2281L116.803 71.2259L116.975 73.3507L118.933 73.1924ZM210.522 73.2882L210.524 71.324L210.522 73.2882ZM219.746 82.5321L221.71 82.5341L219.746 82.5321ZM219.746 82.9521L220.392 84.8068L221.709 84.3479L221.71 82.9541L219.746 82.9521ZM219.734 94.32L221.698 94.322L221.7 92.9283L220.384 92.4666L219.734 94.32ZM219.722 105.638L220.369 107.493L221.685 107.034L221.686 105.64L219.722 105.638ZM219.698 128.325L221.663 128.327L221.674 117.008L219.71 117.006L217.746 117.004L217.734 128.323L219.698 128.325ZM215.677 134.004L217.641 134.007C217.643 132.231 218.776 130.727 220.345 130.179L219.698 128.325L219.052 126.47C215.943 127.554 213.716 130.518 213.712 134.002L215.677 134.004ZM219.686 139.693L220.337 137.839C218.769 137.289 217.639 135.782 217.641 134.007L215.677 134.004L213.712 134.002C213.709 137.487 215.93 140.456 219.036 141.546L219.686 139.693ZM219.686 139.97L221.65 139.972L221.651 139.695L219.686 139.693L217.722 139.691L217.722 139.968L219.686 139.97ZM210.442 149.194L210.44 151.158C216.625 151.165 221.644 146.156 221.65 139.972L219.686 139.97L217.722 139.968C217.718 143.983 214.459 147.234 210.444 147.23L210.442 149.194ZM75.1011 149.053L75.0991 151.017L210.44 151.158L210.442 149.194L210.444 147.23L75.1032 147.088L75.1011 149.053ZM65.8766 139.809L63.9124 139.807C63.9059 145.991 68.9144 151.01 75.0991 151.017L75.1011 149.053L75.1032 147.088C71.0881 147.084 67.8366 143.826 67.8408 139.811L65.8766 139.809ZM65.8767 139.708L63.9125 139.706L63.9124 139.807L65.8766 139.809L67.8408 139.811L67.8409 139.71L65.8767 139.708ZM70.5068 133.852L68.5425 133.85C68.5405 135.777 67.2059 137.383 65.4322 137.795L65.8767 139.708L66.3212 141.621C69.8478 140.802 72.4671 137.633 72.471 133.854L70.5068 133.852ZM65.889 127.986L65.4405 129.899C67.2133 130.314 68.5446 131.922 68.5425 133.85L70.5068 133.852L72.471 133.854C72.475 130.075 69.8624 126.901 66.3374 126.074L65.889 127.986ZM65.9004 117.022L63.9362 117.02L63.9247 127.984L65.889 127.986L67.8532 127.988L67.8647 117.024L65.9004 117.022ZM70.5305 111.166L68.5663 111.164C68.5643 113.091 67.2296 114.696 65.456 115.108L65.9004 117.022L66.3449 118.935C69.8716 118.116 72.4908 114.947 72.4947 111.168L70.5305 111.166ZM65.9127 105.3L65.4642 107.212C67.237 107.628 68.5683 109.236 68.5663 111.164L70.5305 111.166L72.4947 111.168C72.4987 107.389 69.8861 104.214 66.3612 103.388L65.9127 105.3ZM65.9242 94.3353L63.9599 94.3332L63.9485 105.298L65.9127 105.3L67.8769 105.302L67.8884 94.3373L65.9242 94.3353ZM70.5543 88.4793L68.59 88.4773C68.588 90.4047 67.2533 92.01 65.4797 92.422L65.9242 94.3353L66.3686 96.2486C69.8953 95.4293 72.5145 92.2602 72.5185 88.4814L70.5543 88.4793ZM65.9364 82.6137L65.488 84.526C67.2607 84.9418 68.592 86.5499 68.59 88.4773L70.5543 88.4793L72.5185 88.4814C72.5224 84.7025 69.9099 81.5279 66.3849 80.7013L65.9364 82.6137ZM65.9367 82.3711L63.9725 82.3691L63.9722 82.6116L65.9364 82.6137L67.9007 82.6157L67.9009 82.3732L65.9367 82.3711ZM75.1806 73.1466L75.1826 71.1823C68.9979 71.1759 63.9789 76.1844 63.9725 82.3691L65.9367 82.3711L67.9009 82.3732C67.9051 78.3581 71.1634 75.1066 75.1785 75.1108L75.1806 73.1466ZM107.011 73.1799L107.013 71.2156L75.1826 71.1823L75.1806 73.1466L75.1785 75.1108L107.009 75.1441L107.011 73.1799ZM106.99 73.6807L108.954 73.6827C108.954 73.5676 108.959 73.4541 108.968 73.3423L107.011 73.1799L105.053 73.0175C105.035 73.2359 105.026 73.4564 105.026 73.6786L106.99 73.6807ZM112.965 79.7033L112.967 77.7391C110.759 77.7368 108.952 75.9315 108.954 73.6827L106.99 73.6807L105.026 73.6786C105.021 78.0754 108.564 81.663 112.963 81.6676L112.965 79.7033ZM118.953 73.6932L116.988 73.6911C116.986 75.9399 115.175 77.7414 112.967 77.7391L112.965 79.7033L112.963 81.6676C117.362 81.6722 120.912 78.092 120.917 73.6952L118.953 73.6932ZM118.933 73.1924L116.975 73.3507C116.984 73.4625 116.989 73.5761 116.988 73.6911L118.953 73.6932L120.917 73.6952C120.917 73.473 120.908 73.2525 120.891 73.034L118.933 73.1924ZM210.522 73.2882L210.524 71.324L118.935 71.2281L118.933 73.1924L118.931 75.1566L210.52 75.2524L210.522 73.2882ZM219.746 82.5321L221.71 82.5341C221.717 76.3494 216.708 71.3304 210.524 71.324L210.522 73.2882L210.52 75.2524C214.535 75.2566 217.786 78.5149 217.782 82.53L219.746 82.5321ZM219.746 82.9521L221.71 82.9541L221.71 82.5341L219.746 82.5321L217.782 82.53L217.782 82.95L219.746 82.9521ZM215.724 88.6318L217.688 88.6339C217.69 86.8583 218.823 85.354 220.392 84.8068L219.746 82.9521L219.099 81.0974C215.991 82.1812 213.764 85.1452 213.76 88.6298L215.724 88.6318ZM219.734 94.32L220.384 92.4666C218.816 91.9162 217.687 90.4095 217.688 88.6339L215.724 88.6318L213.76 88.6298C213.756 92.1144 215.977 95.0831 219.083 96.1733L219.734 94.32ZM219.722 105.638L221.686 105.64L221.698 94.322L219.734 94.32L217.77 94.3179L217.758 105.636L219.722 105.638ZM215.7 111.318L217.665 111.32C217.667 109.545 218.8 108.04 220.369 107.493L219.722 105.638L219.075 103.784C215.967 104.867 213.74 107.831 213.736 111.316L215.7 111.318ZM219.71 117.006L220.361 115.153C218.793 114.602 217.663 113.096 217.665 111.32L215.7 111.318L213.736 111.316C213.733 114.801 215.954 117.769 219.06 118.86L219.71 117.006Z" fill="#B0B0B0" mask="url(#path-1-outside-1_295_2912)"/>
        <path d="M79.2422 94.4935L79.208 127.12" stroke="white" stroke-width="1.96423" stroke-linecap="round"/>
        <path d="M104.714 120.833L104.736 100.618L109.146 100.623L109.137 109.658C110.179 109.231 111.149 108.691 112.048 108.038C112.968 107.365 113.785 106.621 114.501 105.805C115.216 104.989 115.83 104.142 116.341 103.265C116.853 102.387 117.221 101.509 117.447 100.632L122.5 100.637C122.213 101.637 121.773 102.637 121.18 103.637C120.607 104.617 119.922 105.545 119.125 106.422C118.328 107.299 117.48 108.085 116.58 108.778C115.702 109.451 114.813 109.981 113.914 110.368L113.914 110.827C114.853 110.828 115.69 110.941 116.425 111.167C117.18 111.372 117.843 111.709 118.415 112.18C119.006 112.63 119.526 113.192 119.975 113.866C120.423 114.54 120.821 115.347 121.167 116.287L122.785 120.852L117.793 120.847L116.725 117.17C116.44 116.17 116.063 115.373 115.594 114.78C115.125 114.167 114.523 113.727 113.788 113.461C113.053 113.175 112.094 113.031 110.91 113.029L109.133 113.028L109.125 120.838L104.714 120.833ZM126.354 120.856L126.376 100.641L130.878 100.646L130.857 120.861L126.354 120.856ZM135.94 120.866L135.961 100.651L141.72 100.657L150.863 114.97L151.2 114.971L150.939 100.667L155.227 100.671L155.206 120.886L149.999 120.881L140.336 105.893L139.999 105.893L140.259 120.87L135.94 120.866ZM169.061 121.329C167.591 121.328 166.274 121.102 165.111 120.651C163.948 120.181 162.948 119.506 162.111 118.627C161.296 117.728 160.664 116.634 160.216 115.348C159.788 114.04 159.576 112.549 159.577 110.875C159.58 108.486 160.001 106.516 160.839 104.965C161.678 103.394 162.823 102.221 164.273 101.446C165.744 100.652 167.399 100.255 169.237 100.257C170.666 100.259 171.962 100.495 173.126 100.966C174.289 101.416 175.279 102.091 176.095 102.99C176.931 103.869 177.573 104.972 178.021 106.3C178.469 107.607 178.692 109.108 178.69 110.803C178.688 112.539 178.462 114.06 178.011 115.366C177.561 116.673 176.906 117.774 176.048 118.672C175.209 119.549 174.198 120.212 173.013 120.66C171.828 121.108 170.511 121.331 169.061 121.329ZM169.188 117.807C170.27 117.808 171.179 117.544 171.914 117.014C172.65 116.484 173.212 115.718 173.601 114.718C173.99 113.718 174.186 112.493 174.187 111.044C174.189 109.533 173.986 108.246 173.579 107.184C173.192 106.121 172.621 105.314 171.866 104.762C171.111 104.19 170.192 103.903 169.11 103.902C168.048 103.901 167.14 104.175 166.383 104.726C165.648 105.256 165.075 106.031 164.666 107.052C164.277 108.072 164.081 109.338 164.08 110.849C164.079 111.952 164.19 112.942 164.414 113.821C164.658 114.678 164.994 115.404 165.422 115.996C165.85 116.589 166.381 117.039 167.013 117.346C167.646 117.652 168.371 117.806 169.188 117.807Z" fill="white"/>
        <path d="M203.463 94.6235L203.429 127.25" stroke="white" stroke-width="1.96423" stroke-linecap="round"/>
        <mask id="path-6-outside-2_295_2912" maskUnits="userSpaceOnUse" x="28.9297" y="-2.6647" width="177.038" height="139.945" fill="black">
        <rect fill="white" x="28.9297" y="-2.6647" width="177.038" height="139.945"/>
        <path fill-rule="evenodd" clip-rule="evenodd" d="M189.477 39.4975L194.323 49.7255C192.56 51.4656 192.001 54.2049 193.127 56.582C194.254 58.9591 196.728 60.2614 199.191 59.9992L199.31 60.2505C201.493 64.8593 199.527 70.3657 194.919 72.5493L72.6104 130.497C68.0016 132.68 62.4952 130.714 60.3117 126.106L60.2693 126.016C62.3986 124.323 63.1598 121.319 61.9383 118.74C60.7167 116.162 57.9097 114.848 55.2507 115.424L50.5559 105.515C52.6852 103.821 53.4464 100.817 52.2249 98.2386C51.0034 95.6603 48.1963 94.3465 45.5373 94.9218L40.8426 85.0128C42.9719 83.3195 43.7331 80.3151 42.5115 77.7369C41.29 75.1586 38.4829 73.8448 35.8239 74.4201L35.7192 74.1991C33.5356 69.5903 35.5017 64.0839 40.1105 61.9004L162.419 3.95275C167.027 1.76916 172.534 3.73521 174.717 8.34402L174.897 8.7221C173.134 10.4622 172.574 13.2015 173.701 15.5786C174.827 17.9557 177.301 19.258 179.764 18.9958L184.61 29.2238C182.847 30.9639 182.288 33.7032 183.414 36.0803C184.54 38.4574 187.014 39.7597 189.477 39.4975Z"/>
        </mask>
        <path fill-rule="evenodd" clip-rule="evenodd" d="M189.477 39.4975L194.323 49.7255C192.56 51.4656 192.001 54.2049 193.127 56.582C194.254 58.9591 196.728 60.2614 199.191 59.9992L199.31 60.2505C201.493 64.8593 199.527 70.3657 194.919 72.5493L72.6104 130.497C68.0016 132.68 62.4952 130.714 60.3117 126.106L60.2693 126.016C62.3986 124.323 63.1598 121.319 61.9383 118.74C60.7167 116.162 57.9097 114.848 55.2507 115.424L50.5559 105.515C52.6852 103.821 53.4464 100.817 52.2249 98.2386C51.0034 95.6603 48.1963 94.3465 45.5373 94.9218L40.8426 85.0128C42.9719 83.3195 43.7331 80.3151 42.5115 77.7369C41.29 75.1586 38.4829 73.8448 35.8239 74.4201L35.7192 74.1991C33.5356 69.5903 35.5017 64.0839 40.1105 61.9004L162.419 3.95275C167.027 1.76916 172.534 3.73521 174.717 8.34402L174.897 8.7221C173.134 10.4622 172.574 13.2015 173.701 15.5786C174.827 17.9557 177.301 19.258 179.764 18.9958L184.61 29.2238C182.847 30.9639 182.288 33.7032 183.414 36.0803C184.54 38.4574 187.014 39.7597 189.477 39.4975Z" fill="#F23D2E"/>
        <path d="M194.323 49.7255L195.703 51.1235L196.695 50.1442L196.098 48.8845L194.323 49.7255ZM189.477 39.4975L191.252 38.6565L190.656 37.3968L189.27 37.5443L189.477 39.4975ZM199.191 59.9992L200.966 59.1582L200.369 57.8985L198.983 58.046L199.191 59.9992ZM194.919 72.5493L194.078 70.7742L194.919 72.5493ZM72.6104 130.497L73.4514 132.272L72.6104 130.497ZM60.3117 126.106L62.0867 125.265L60.3117 126.106ZM60.2693 126.016L59.0467 124.479L57.827 125.449L58.4942 126.857L60.2693 126.016ZM55.2507 115.424L53.4756 116.265L54.1428 117.673L55.666 117.343L55.2507 115.424ZM50.5559 105.515L49.3334 103.977L48.1136 104.947L48.7808 106.356L50.5559 105.515ZM45.5373 94.9218L43.7622 95.7628L44.4295 97.1712L45.9527 96.8416L45.5373 94.9218ZM40.8426 85.0128L39.62 83.4754L38.4002 84.4455L39.0675 85.8538L40.8426 85.0128ZM35.8239 74.4201L34.0488 75.2611L34.7161 76.6695L36.2393 76.3399L35.8239 74.4201ZM35.7192 74.1991L33.9441 75.0401L35.7192 74.1991ZM174.897 8.7221L176.276 10.1201L177.268 9.14083L176.672 7.8811L174.897 8.7221ZM179.764 18.9958L181.539 18.1548L180.942 16.8951L179.556 17.0426L179.764 18.9958ZM184.61 29.2238L185.99 30.6218L186.982 29.6425L186.385 28.3828L184.61 29.2238ZM194.323 49.7255L196.098 48.8845L191.252 38.6565L189.477 39.4975L187.702 40.3385L192.548 50.5665L194.323 49.7255ZM193.127 56.582L194.902 55.741C194.142 54.1362 194.52 52.291 195.703 51.1235L194.323 49.7255L192.943 48.3275C190.6 50.6401 189.86 54.2736 191.352 57.423L193.127 56.582ZM199.191 59.9992L198.983 58.046C197.33 58.2219 195.663 57.3458 194.902 55.741L193.127 56.582L191.352 57.423C192.844 60.5724 196.125 62.3008 199.399 61.9524L199.191 59.9992ZM199.31 60.2505L201.085 59.4095L200.966 59.1582L199.191 59.9992L197.416 60.8402L197.535 61.0915L199.31 60.2505ZM194.919 72.5493L195.76 74.3243C201.349 71.6763 203.733 64.9987 201.085 59.4095L199.31 60.2505L197.535 61.0915C199.254 64.72 197.706 69.0551 194.078 70.7742L194.919 72.5493ZM72.6104 130.497L73.4514 132.272L195.76 74.3243L194.919 72.5493L194.078 70.7742L71.7694 128.722L72.6104 130.497ZM60.3117 126.106L58.5366 126.947C61.1846 132.536 67.8622 134.92 73.4514 132.272L72.6104 130.497L71.7694 128.722C68.1409 130.441 63.8058 128.893 62.0867 125.265L60.3117 126.106ZM60.2693 126.016L58.4942 126.857L58.5366 126.947L60.3117 126.106L62.0867 125.265L62.0444 125.175L60.2693 126.016ZM61.9383 118.74L60.1632 119.581C60.9884 121.323 60.4718 123.346 59.0467 124.479L60.2693 126.016L61.4919 127.554C64.3254 125.3 65.3312 121.314 63.7134 117.899L61.9383 118.74ZM55.2507 115.424L55.666 117.343C57.4456 116.958 59.338 117.84 60.1632 119.581L61.9383 118.74L63.7134 117.899C62.0955 114.484 58.3737 112.738 54.8353 113.504L55.2507 115.424ZM50.5559 105.515L48.7808 106.356L53.4756 116.265L55.2507 115.424L57.0257 114.583L52.331 104.674L50.5559 105.515ZM52.2249 98.2386L50.4498 99.0796C51.275 100.821 50.7584 102.844 49.3334 103.977L50.5559 105.515L51.7785 107.052C54.6121 104.799 55.6179 100.812 54 97.3976L52.2249 98.2386ZM45.5373 94.9218L45.9527 96.8416C47.7322 96.4566 49.6246 97.3379 50.4498 99.0796L52.2249 98.2386L54 97.3976C52.3821 93.9828 48.6604 92.2364 45.1219 93.002L45.5373 94.9218ZM40.8426 85.0128L39.0675 85.8538L43.7622 95.7628L45.5373 94.9218L47.3124 94.0808L42.6176 84.1718L40.8426 85.0128ZM42.5115 77.7369L40.7364 78.5779C41.5616 80.3196 41.045 82.3422 39.62 83.4754L40.8426 85.0128L42.0651 86.5502C44.8987 84.2968 45.9045 80.3106 44.2866 76.8959L42.5115 77.7369ZM35.8239 74.4201L36.2393 76.3399C38.0189 75.9549 39.9113 76.8362 40.7364 78.5779L42.5115 77.7369L44.2866 76.8959C42.6687 73.4811 38.947 71.7347 35.4085 72.5003L35.8239 74.4201ZM35.7192 74.1991L33.9441 75.0401L34.0488 75.2611L35.8239 74.4201L37.599 73.5791L37.4943 73.3581L35.7192 74.1991ZM40.1105 61.9004L39.2695 60.1253C33.6803 62.7733 31.2961 69.4509 33.9441 75.0401L35.7192 74.1991L37.4943 73.3581C35.7752 69.7296 37.323 65.3946 40.9515 63.6755L40.1105 61.9004ZM162.419 3.95275L161.578 2.17766L39.2695 60.1253L40.1105 61.9004L40.9515 63.6755L163.26 5.72783L162.419 3.95275ZM174.717 8.34402L176.492 7.50302C173.844 1.91385 167.167 -0.470396 161.578 2.17766L162.419 3.95275L163.26 5.72783C166.888 4.00872 171.223 5.55656 172.942 9.18503L174.717 8.34402ZM174.897 8.7221L176.672 7.8811L176.492 7.50302L174.717 8.34402L172.942 9.18503L173.121 9.56311L174.897 8.7221ZM173.701 15.5786L175.476 14.7376C174.715 13.1328 175.093 11.2876 176.276 10.1201L174.897 8.7221L173.517 7.32415C171.174 9.63674 170.433 13.2702 171.926 16.4196L173.701 15.5786ZM179.764 18.9958L179.556 17.0426C177.903 17.2185 176.236 16.3424 175.476 14.7376L173.701 15.5786L171.926 16.4196C173.418 19.569 176.698 21.2974 179.972 20.949L179.764 18.9958ZM184.61 29.2238L186.385 28.3828L181.539 18.1548L179.764 18.9958L177.989 19.8368L182.835 30.0648L184.61 29.2238ZM183.414 36.0803L185.189 35.2393C184.429 33.6345 184.807 31.7893 185.99 30.6218L184.61 29.2238L183.23 27.8258C180.887 30.1384 180.147 33.7719 181.639 36.9213L183.414 36.0803ZM189.477 39.4975L189.27 37.5443C187.617 37.7202 185.949 36.8441 185.189 35.2393L183.414 36.0803L181.639 36.9213C183.131 40.0707 186.412 41.7991 189.685 41.4507L189.477 39.4975Z" fill="#B0B0B0" mask="url(#path-6-outside-2_295_2912)"/>
        <path d="M52.9375 79.4398L66.9068 108.924" stroke="white" stroke-width="1.96423" stroke-linecap="round"/>
        <path d="M87.071 92.3848L78.4158 74.1165L82.4016 72.2281L86.2702 80.3934C87.0277 79.5601 87.6725 78.6558 88.2047 77.6806C88.7466 76.6782 89.1656 75.655 89.4617 74.6109C89.7579 73.5668 89.9486 72.5387 90.034 71.5267C90.1194 70.5146 90.0756 69.5638 89.9027 68.6742L94.4698 66.5103C94.6398 67.5369 94.6715 68.6291 94.5647 69.7868C94.4677 70.9174 94.2473 72.0498 93.9036 73.1843C93.5598 74.3187 93.1306 75.392 92.616 76.404C92.111 77.3889 91.5356 78.249 90.8898 78.9843L91.0865 79.3995C91.9353 78.9973 92.74 78.7404 93.5005 78.6286C94.2706 78.4896 95.0146 78.51 95.7324 78.6896C96.4599 78.842 97.1708 79.1265 97.8653 79.5432C98.5598 79.9598 99.2649 80.5182 99.9808 81.2184L103.402 84.6475L98.8901 86.7851L96.3476 83.9226C95.6609 83.1408 94.9785 82.5829 94.3006 82.2488C93.6139 81.8963 92.8816 81.7575 92.1036 81.8323C91.3169 81.8887 90.3884 82.1705 89.3181 82.6776L87.7127 83.4382L91.0568 90.4964L87.071 92.3848ZM106.627 83.1195L97.9718 64.8511L102.041 62.9234L110.696 81.1917L106.627 83.1195ZM115.29 79.0152L106.635 60.7469L111.838 58.2814L126.239 67.2866L126.543 67.1423L120.17 54.3341L124.045 52.4981L132.7 70.7665L127.995 72.9959L112.835 63.6047L112.531 63.749L119.193 77.1661L115.29 79.0152ZM145.406 65.2213C144.077 65.8508 142.791 66.2117 141.546 66.3041C140.294 66.378 139.101 66.1975 137.968 65.7624C136.846 65.3002 135.806 64.584 134.849 63.6138C133.902 62.6164 133.07 61.3612 132.353 59.848C131.33 57.6891 130.865 55.7291 130.957 53.9683C131.04 52.1889 131.571 50.6383 132.549 49.3164C133.537 47.9672 134.861 46.8993 136.522 46.1124C137.813 45.5004 139.086 45.1575 140.338 45.0836C141.583 44.9912 142.766 45.1761 143.889 45.6383C145.021 46.0734 146.075 46.7944 147.049 47.8015C148.014 48.7902 148.86 50.0503 149.586 51.5819C150.329 53.1504 150.777 54.6213 150.931 55.9946C151.084 57.3679 150.966 58.6441 150.576 59.8233C150.195 60.9752 149.566 62.0077 148.688 62.9207C147.81 63.8337 146.716 64.6006 145.406 65.2213ZM144.008 61.9858C144.986 61.5224 145.694 60.8935 146.131 60.099C146.568 59.3044 146.747 58.372 146.669 57.3017C146.592 56.2314 146.242 55.0412 145.622 53.7311C144.975 52.3655 144.239 51.2904 143.416 50.5058C142.611 49.7123 141.749 49.2282 140.83 49.0535C139.902 48.8603 138.949 48.9953 137.971 49.4587C137.012 49.9133 136.309 50.5515 135.862 51.3732C135.425 52.1677 135.241 53.1137 135.309 54.2112C135.395 55.3 135.762 56.5271 136.409 57.8926C136.881 58.8891 137.406 59.7359 137.985 60.4332C138.574 61.1034 139.189 61.6142 139.83 61.9657C140.471 62.3172 141.143 62.4959 141.846 62.5017C142.549 62.5074 143.27 62.3355 144.008 61.9858Z" fill="white"/>
        <path d="M164.842 26.4215L178.811 55.906" stroke="white" stroke-width="1.96423" stroke-linecap="round"/>
        <path fill-rule="evenodd" clip-rule="evenodd" d="M5.64966 133.601C5.63957 131.828 4.85101 130.118 3.47993 128.896L2.47659 128.001L4.1431 128.001C5.85438 128 7.47373 127.344 8.64743 126.178L9.79043 125.042L9.79782 126.339C9.80791 128.112 10.5965 129.822 11.9676 131.045L12.9709 131.939L11.3044 131.94C9.5931 131.941 7.97375 132.596 6.80004 133.763L5.65705 134.899L5.64966 133.601Z" stroke="white" stroke-width="1.77034" stroke-linejoin="round"/>
        <path fill-rule="evenodd" clip-rule="evenodd" d="M21.9703 33.4923C22.7741 35.2254 24.2979 36.572 26.1885 37.2201L27.8167 37.7783L26.2538 38.4185C24.3926 39.1808 22.9439 40.6271 22.2472 42.4185L21.6621 43.9229L20.9698 42.4303C20.166 40.6972 18.6422 39.3506 16.7516 38.7024L15.1234 38.1443L16.6863 37.5041C18.5475 36.7418 19.9962 35.2954 20.6929 33.5041L21.278 31.9997L21.9703 33.4923Z" stroke="white" stroke-width="1.99137" stroke-linejoin="round"/>
    </symbol></defs>

<!-- Infos essentielles -->

<!-- gros clap etoile -->
 <defs> <symbol id="gros-clap-etoile" viewBox="0 0 172 175" fill="none">
    <path d="M147.957 63.4577C148.214 63.3955 148.471 63.5337 148.567 63.7682L148.597 63.8735L160.452 128.499L160.453 128.502C161.495 133.915 157.951 139.148 152.538 140.189L152.518 140.193L152.498 140.198L65.4194 164.151C60.1819 165.15 55.1182 161.858 53.8609 156.735L53.7512 156.234L53.75 156.232L40.7621 89.9454C40.7148 89.7039 40.8416 89.4669 41.0571 89.3672L41.1541 89.3339L147.957 63.4577Z" fill="#F7F2EC" stroke="white" stroke-width="1.05053"/>
    <mask id="mask0_425_185" style="mask-type:alpha" maskUnits="userSpaceOnUse" x="41" y="64" width="111" height="42">
    <path d="M147.085 64.1756L42.2574 89.6082C41.7205 89.7385 41.3833 90.2767 41.4929 90.8287L44.21 104.526C44.3254 105.108 44.8904 105.481 45.4577 105.35L150.238 81.2189C150.773 81.0957 151.115 80.567 151.017 80.0164L148.348 65.0179C148.242 64.4212 147.663 64.0354 147.085 64.1756Z" fill="white"/>
    </mask>
    <g mask="url(#mask0_425_185)">
    <rect x="46.6914" y="83.6017" width="7.87016" height="23.7472" transform="rotate(16.7242 46.6914 83.6017)" fill="#20232B"/>
    <rect x="64.0508" y="79.5099" width="7.87016" height="24.8531" transform="rotate(16.7242 64.0508 79.5099)" fill="#20232B"/>
    <rect x="81.3633" y="75.4181" width="7.87016" height="24.8531" transform="rotate(16.7242 81.3633 75.4181)" fill="#20232B"/>
    <rect x="98.6836" y="71.3322" width="7.87016" height="24.8531" transform="rotate(16.7242 98.6836 71.3322)" fill="#20232B"/>
    <rect x="116.051" y="67.2423" width="7.87016" height="24.8531" transform="rotate(16.7242 116.051 67.2423)" fill="#20232B"/>
    <rect x="133.379" y="63.1486" width="7.87016" height="24.8531" transform="rotate(16.7242 133.379 63.1486)" fill="#20232B"/>
    <rect x="150.707" y="59.0587" width="7.87016" height="24.8531" transform="rotate(16.7242 150.707 59.0587)" fill="#20232B"/>
    </g>
    <path d="M119.998 15.1436C122.871 13.3823 126.601 14.1989 128.487 16.9472L128.663 17.2187L136.043 29.2347C136.175 29.4505 136.134 29.7249 135.956 29.8921L135.872 29.9572L40.9298 88.6409C40.6991 88.7835 40.4043 88.7248 40.2426 88.5217L40.1818 88.4253L37.3203 82.6037L37.315 82.5936L37.1905 82.341C36.5725 81.0278 36.0316 78.9526 36.0084 76.9672C35.9834 74.8207 36.5585 72.9996 38.007 72.2031L38.0309 72.1901L38.0535 72.1744L119.998 15.1436Z" fill="#F7F2EC" stroke="white" stroke-width="1.05053"/>
    <mask id="mask1_425_185" style="mask-type:alpha" maskUnits="userSpaceOnUse" x="36" y="14" width="100" height="75">
    <path d="M117.783 17.8447C120.26 15.863 122.154 15.0718 123.696 15.1485C125.207 15.2239 126.512 16.1436 127.799 17.9345L134.908 29.3546L40.9106 87.925L37.9895 81.7744C37.4761 79.8473 36.9058 78.0382 36.9098 76.408C36.9118 75.6021 37.0567 74.8645 37.4098 74.1998C37.7621 73.5371 38.337 72.9184 39.2435 72.3713L39.2554 72.3639L39.2671 72.3554L117.76 17.8625L117.771 17.8541L117.783 17.8447Z" fill="#D9D9D9" stroke="white" stroke-width="0.880627"/>
    </mask>
    <g mask="url(#mask1_425_185)">
    <rect x="0.0869554" y="0.279692" width="7.45594" height="32.8445" transform="matrix(-0.4653 0.885153 0.885153 0.465301 115.325 7.15266)" fill="#20232B" stroke="#20232B" stroke-width="0.414219"/>
    <rect x="0.0869554" y="0.279692" width="7.45594" height="28.0194" transform="matrix(-0.4653 0.885153 0.885153 0.465301 104.536 18.889)" fill="#20232B" stroke="#20232B" stroke-width="0.414219"/>
    <rect x="0.0869554" y="0.279692" width="7.45594" height="32.4256" transform="matrix(-0.4653 0.885153 0.885153 0.465301 104.56 18.9007)" fill="#20232B" stroke="#20232B" stroke-width="0.414219"/>
    <rect x="0.0869554" y="0.279692" width="7.45594" height="27.1673" transform="matrix(-0.4653 0.885153 0.885153 0.465301 92.6689 30.0628)" fill="#20232B" stroke="#20232B" stroke-width="0.414219"/>
    <rect x="0.0869554" y="0.279692" width="7.45594" height="30.5886" transform="matrix(-0.4653 0.885153 0.885153 0.465301 77.583 39.5765)" fill="#20232B" stroke="#20232B" stroke-width="0.414219"/>
    <rect x="0.0869554" y="0.279692" width="7.45594" height="27.9353" transform="matrix(-0.4653 0.885153 0.885153 0.465301 62.5127 49.0843)" fill="#20232B" stroke="#20232B" stroke-width="0.414219"/>
    <rect x="0.0869554" y="0.279692" width="7.45594" height="27.7711" transform="matrix(-0.4653 0.885153 0.885153 0.4653 47.4736 58.5941)" fill="#20232B" stroke="#20232B" stroke-width="0.414219"/>
    <rect x="0.0869554" y="0.279692" width="7.45594" height="25.9808" transform="matrix(-0.4653 0.885153 0.885153 0.465301 32.3955 68.1058)" fill="#20232B" stroke="#20232B" stroke-width="0.414219"/>
    <rect x="0.0869554" y="0.279692" width="7.45594" height="24.4389" transform="matrix(-0.4653 0.885153 0.885153 0.465301 17.3252 77.6195)" fill="#20232B" stroke="#20232B" stroke-width="0.414219"/>
    </g>
    <path d="M56.8552 125.465C56.6963 124.734 57.0224 124.015 57.5838 123.86L147.911 99.4223C148.473 99.2668 149.056 99.7332 149.215 100.464L154.546 125.94C154.705 126.671 154.379 127.389 153.818 127.545L64.2903 156.871C63.7289 157.026 63.145 156.56 62.986 155.829L56.8552 125.465Z" fill="#F23D2E"/>
    <mask id="path-22-inside-1_425_185" fill="white">
    <path fill-rule="evenodd" clip-rule="evenodd" d="M40.7245 88.7284C40.9322 88.8494 40.8866 89.1618 40.653 89.2184C40.5142 89.2521 40.4265 89.389 40.4539 89.5291L53.586 156.552C54.6017 161.832 59.4056 165.422 64.6386 165.048L58.8486 165.802C53.1511 166.898 49.0955 164.217 47.9994 158.52L33.9459 86.798C33.7721 85.9112 34.7248 85.2334 35.5056 85.6882L40.7245 88.7284ZM65.8799 164.885C65.8798 164.885 65.8795 164.885 65.8792 164.885C65.8726 164.886 65.866 164.887 65.8593 164.888L65.8794 164.886C65.8798 164.886 65.88 164.885 65.8799 164.885Z"/>
    </mask>
    <path fill-rule="evenodd" clip-rule="evenodd" d="M40.7245 88.7284C40.9322 88.8494 40.8866 89.1618 40.653 89.2184C40.5142 89.2521 40.4265 89.389 40.4539 89.5291L53.586 156.552C54.6017 161.832 59.4056 165.422 64.6386 165.048L58.8486 165.802C53.1511 166.898 49.0955 164.217 47.9994 158.52L33.9459 86.798C33.7721 85.9112 34.7248 85.2334 35.5056 85.6882L40.7245 88.7284ZM65.8799 164.885C65.8798 164.885 65.8795 164.885 65.8792 164.885C65.8726 164.886 65.866 164.887 65.8593 164.888L65.8794 164.886C65.8798 164.886 65.88 164.885 65.8799 164.885Z" fill="#20232B"/>
    <path d="M53.586 156.552L54.6176 156.353L54.6169 156.35L53.586 156.552ZM64.6386 165.048L64.7743 166.089L64.5636 164L64.6386 165.048ZM58.8486 165.802L58.7128 164.761L58.6813 164.765L58.6501 164.771L58.8486 165.802ZM47.9994 158.52L49.0311 158.321L49.0304 158.318L47.9994 158.52ZM65.8593 164.888L65.664 163.856L65.9951 165.93L65.8593 164.888ZM65.8794 164.886L66.0152 165.928L65.8794 164.886ZM65.8792 164.885L66.0768 165.916L65.8792 164.885ZM40.7245 88.7284L41.2533 87.8207L40.7245 88.7284ZM40.4539 89.5291L39.423 89.7311L40.4539 89.5291ZM54.6169 156.35L41.4848 89.3271L39.423 89.7311L52.555 156.754L54.6169 156.35ZM64.5636 164C59.8551 164.337 55.5316 161.104 54.6176 156.353L52.5544 156.75C53.6718 162.559 58.9562 166.507 64.7135 166.095L64.5636 164ZM58.9843 166.844L64.7743 166.089L64.5028 164.006L58.7128 164.761L58.9843 166.844ZM46.9678 158.718C47.5557 161.774 48.9657 164.145 51.1146 165.582C53.2615 167.017 55.9981 167.421 59.047 166.834L58.6501 164.771C56.0015 165.28 53.8616 164.891 52.2824 163.835C50.7052 162.781 49.5393 160.963 49.0311 158.321L46.9678 158.718ZM32.915 87L46.9685 158.722L49.0304 158.318L34.9768 86.596L32.915 87ZM41.2533 87.8207L36.0344 84.7805L34.9768 86.596L40.1957 89.6362L41.2533 87.8207ZM65.6816 163.853C65.6749 163.854 65.6693 163.855 65.664 163.856L66.0547 165.921C66.0626 165.919 66.0703 165.918 66.0768 165.916L65.6816 163.853ZM65.9951 165.93L66.0152 165.928L65.7436 163.844L65.7235 163.847L65.9951 165.93ZM66.0152 165.928C66.6665 165.843 67.0813 165.188 66.8797 164.563L64.8801 165.208C64.6787 164.583 65.093 163.929 65.7436 163.844L66.0152 165.928ZM66.0768 165.916C65.5561 166.016 65.0428 165.712 64.8801 165.208L66.8797 164.563C66.7168 164.058 66.2029 163.753 65.6816 163.853L66.0768 165.916ZM34.9768 86.596L34.9768 86.596L36.0344 84.7805C34.4728 83.8708 32.5675 85.2264 32.915 87L34.9768 86.596ZM40.9003 90.2394C42.0536 89.96 42.2786 88.418 41.2533 87.8207L40.1957 89.6362C39.5858 89.2809 39.7197 88.3636 40.4056 88.1974L40.9003 90.2394ZM40.4056 88.1974C39.7205 88.3634 39.2875 89.0394 39.423 89.7311L41.4848 89.3271C41.5655 89.7386 41.3079 90.1407 40.9003 90.2394L40.4056 88.1974Z" fill="white" mask="url(#path-22-inside-1_425_185)"/>
    <path d="M137.276 60.0843L147.845 63.3156C148.1 63.3936 148.09 63.7582 147.831 63.8218L41.3879 89.9609C40.9784 90.0615 40.5484 89.9074 40.2959 89.5697L37.4508 85.7638C36.9998 85.1604 37.3116 84.2925 38.0435 84.1141L136.72 60.0683C136.903 60.0236 137.095 60.0291 137.276 60.0843Z" fill="#20232B" stroke="white" stroke-width="1.05053"/>
    <path d="M147.942 63.5631C148.198 63.501 148.455 63.6392 148.551 63.8737L148.582 63.979L160.436 128.604L160.438 128.608C161.479 134.02 157.935 139.253 152.523 140.294L152.502 140.298L152.482 140.304L65.4038 164.257C60.1663 165.255 55.1025 161.963 53.8453 156.841L53.7356 156.339L53.7343 156.337L40.7465 90.0508C40.6992 89.8094 40.8259 89.5723 41.0414 89.4727L41.1385 89.4394L147.942 63.5631Z" fill="#F7F2EC" stroke="white" stroke-width="1.05053"/>
    <mask id="mask2_425_185" style="mask-type:alpha" maskUnits="userSpaceOnUse" x="41" y="64" width="111" height="42">
    <path d="M147.069 64.2811L42.2417 89.7137C41.7048 89.844 41.3677 90.3821 41.4772 90.9342L44.1944 104.631C44.3098 105.213 44.8748 105.586 45.442 105.456L150.222 81.3244C150.757 81.2011 151.1 80.6725 151.002 80.1219L148.332 65.1233C148.226 64.5267 147.647 64.1408 147.069 64.2811Z" fill="white"/>
    </mask>
    <g mask="url(#mask2_425_185)">
    <rect x="46.668" y="83.7072" width="7.87016" height="23.7472" transform="rotate(16.7242 46.668 83.7072)" fill="#20232B"/>
    <rect x="64.0273" y="79.6154" width="7.87016" height="24.8531" transform="rotate(16.7242 64.0273 79.6154)" fill="#20232B"/>
    <rect x="81.3398" y="75.5236" width="7.87016" height="24.8531" transform="rotate(16.7242 81.3398 75.5236)" fill="#20232B"/>
    <rect x="98.6602" y="71.4376" width="7.87016" height="24.8531" transform="rotate(16.7242 98.6602 71.4376)" fill="#20232B"/>
    <rect x="116.027" y="67.3478" width="7.87016" height="24.8531" transform="rotate(16.7242 116.027 67.3478)" fill="#20232B"/>
    <rect x="133.355" y="63.254" width="7.87016" height="24.8531" transform="rotate(16.7242 133.355 63.254)" fill="#20232B"/>
    <rect x="150.684" y="59.1642" width="7.87016" height="24.8531" transform="rotate(16.7242 150.684 59.1642)" fill="#20232B"/>
    </g>
    <path d="M40.7108 89.868L34.0584 85.5942L30.0468 77.6011C30.0185 77.5447 29.9917 77.4904 29.9672 77.4322C29.7125 76.8264 28.3395 73.0699 32.0066 70.015C33.6648 68.6337 112.659 14.0621 113.5 13.5C116.495 11.4978 125.053 14.557 125.053 14.557L41.0648 71.5919L40.7108 89.868Z" fill="#20232B" stroke="white" stroke-width="1.05053"/>
    <path d="M119.982 15.2491C122.855 13.4877 126.585 14.3044 128.471 17.0527L128.647 17.3242L136.027 29.3402C136.16 29.556 136.118 29.8304 135.941 29.9975L135.857 30.0627L40.9142 88.7464C40.6835 88.889 40.3887 88.8303 40.227 88.6272L40.1661 88.5307L37.3047 82.7092L37.2994 82.6991L37.1749 82.4464C36.5568 81.1333 36.0159 79.0581 35.9928 77.0727C35.9678 74.9261 36.5428 73.1051 37.9914 72.3086L38.0153 72.2956L38.0379 72.2799L119.982 15.2491Z" fill="#F7F2EC" stroke="white" stroke-width="1.05053"/>
    <mask id="mask3_425_185" style="mask-type:alpha" maskUnits="userSpaceOnUse" x="36" y="14" width="100" height="75">
    <path d="M117.767 17.9501C120.245 15.9685 122.139 15.1773 123.68 15.254C125.192 15.3294 126.496 16.249 127.784 18.0399L134.892 29.4601L40.895 88.0304L37.9739 81.8799C37.4605 79.9528 36.8902 78.1437 36.8942 76.5135C36.8962 75.7076 37.041 74.9699 37.3942 74.3053C37.7464 73.6426 38.3214 73.0239 39.2279 72.4768L39.2397 72.4693L39.2514 72.4609L117.744 17.9679L117.756 17.9595L117.767 17.9501Z" fill="#D9D9D9" stroke="white" stroke-width="0.880627"/>
    </mask>
    <g mask="url(#mask3_425_185)">
    <rect x="0.0869554" y="0.279692" width="7.45594" height="32.8445" transform="matrix(-0.4653 0.885153 0.885153 0.465301 115.31 7.25813)" fill="#20232B" stroke="#20232B" stroke-width="0.414219"/>
    <rect x="0.0869554" y="0.279692" width="7.45594" height="28.0194" transform="matrix(-0.4653 0.885153 0.885153 0.465301 104.52 18.9945)" fill="#20232B" stroke="#20232B" stroke-width="0.414219"/>
    <rect x="0.0869554" y="0.279692" width="7.45594" height="32.4256" transform="matrix(-0.4653 0.885153 0.885153 0.465301 104.544 19.0062)" fill="#20232B" stroke="#20232B" stroke-width="0.414219"/>
    <rect x="0.0869554" y="0.279692" width="7.45594" height="27.1673" transform="matrix(-0.4653 0.885153 0.885153 0.465301 92.6533 30.1683)" fill="#20232B" stroke="#20232B" stroke-width="0.414219"/>
    <rect x="0.0869554" y="0.279692" width="7.45594" height="30.5886" transform="matrix(-0.4653 0.885153 0.885153 0.465301 77.5673 39.682)" fill="#20232B" stroke="#20232B" stroke-width="0.414219"/>
    <rect x="0.0869554" y="0.279692" width="7.45594" height="27.9353" transform="matrix(-0.4653 0.885153 0.885153 0.465301 62.497 49.1898)" fill="#20232B" stroke="#20232B" stroke-width="0.414219"/>
    <rect x="0.0869554" y="0.279692" width="7.45594" height="27.7711" transform="matrix(-0.4653 0.885153 0.885153 0.4653 47.458 58.6995)" fill="#20232B" stroke="#20232B" stroke-width="0.414219"/>
    <rect x="0.0869554" y="0.279692" width="7.45594" height="25.9808" transform="matrix(-0.4653 0.885153 0.885153 0.465301 32.3798 68.2113)" fill="#20232B" stroke="#20232B" stroke-width="0.414219"/>
    <rect x="0.0869554" y="0.279692" width="7.45594" height="24.4389" transform="matrix(-0.4653 0.885153 0.885153 0.465301 17.3095 77.7249)" fill="#20232B" stroke="#20232B" stroke-width="0.414219"/>
    </g>
    <path d="M56.8396 125.568C56.6806 124.838 57.0068 124.119 57.5682 123.964L147.896 99.526C148.457 99.3705 149.041 99.8369 149.2 100.568L154.531 126.043C154.689 126.774 154.363 127.493 153.802 127.648L64.2746 156.975C63.7133 157.13 63.1293 156.664 62.9704 155.933L56.8396 125.568Z" fill="#F23D2E"/>
    <path fill-rule="evenodd" clip-rule="evenodd" d="M10.4933 97.4368C9.98496 95.9651 8.89166 94.7641 7.46819 94.1137L6.355 93.6051L7.51376 93.2111C8.99549 92.7074 10.2042 91.6227 10.8582 90.2096L11.3696 89.1046L11.7671 90.2555C12.2754 91.7272 13.3687 92.9282 14.7922 93.5786L15.9054 94.0872L14.7466 94.4812C13.2649 94.9849 12.0562 96.0696 11.4022 97.4827L10.8908 98.5877L10.4933 97.4368Z" stroke="white" stroke-width="1.58513" stroke-linejoin="round"/>
    <path fill-rule="evenodd" clip-rule="evenodd" d="M149.6 15.6763C149.653 14.147 149.076 12.6624 148.005 11.5684L147 10.5426L148.435 10.5935C149.965 10.6477 151.451 10.0729 152.545 9.00305L153.57 8L153.521 9.43375C153.468 10.963 154.044 12.4476 155.116 13.5417L156.12 14.5674L154.685 14.5166C153.155 14.4623 151.67 15.0371 150.576 16.107L149.55 17.11L149.6 15.6763Z" stroke="white" stroke-width="1.60274" stroke-linejoin="round"/>
</symbol></defs>

<!-- document -->
 <defs>
<symbol id="document" viewBox="0 0 48 48" fill="none">
    <rect x="0" y="0" width="48" height="48" rx="8" fill="#FFCDC9"/>
    <path d="M35.6 29.5333C35.4269 29.4035 35.2164 29.3333 35 29.3333H34V16.3333C34 15.2724 33.5786 14.255 32.8284 13.5049C32.0783 12.7547 31.0609 12.3333 30 12.3333H13C11.9391 12.3333 10.9217 12.7547 10.1716 13.5049C9.42143 14.255 9 15.2724 9 16.3333C9 18.0346 10.2563 19.0258 10.4 19.1333C10.5726 19.264 10.7835 19.3343 11 19.3333C11.2084 19.3327 11.4114 19.2671 11.5807 19.1455C11.75 19.0239 11.877 18.8524 11.9441 18.6551C12.0111 18.4578 12.0149 18.2444 11.9548 18.0448C11.8946 17.8453 11.7737 17.6695 11.6088 17.5421C11.6037 17.5358 11 17.0508 11 16.3333C11 15.8029 11.2107 15.2942 11.5858 14.9191C11.9609 14.544 12.4696 14.3333 13 14.3333C13.5304 14.3333 14.0391 14.544 14.4142 14.9191C14.7893 15.2942 15 15.8029 15 16.3333V32.3333C15 33.3942 15.4214 34.4116 16.1716 35.1617C16.9217 35.9119 17.9391 36.3333 19 36.3333H33C34.0609 36.3333 35.0783 35.9119 35.8284 35.1617C36.5786 34.4116 37 33.3942 37 32.3333C37 30.6321 35.75 29.6408 35.6 29.5333ZM21 20.3333H29C29.2652 20.3333 29.5196 20.4387 29.7071 20.6262C29.8946 20.8137 30 21.0681 30 21.3333C30 21.5985 29.8946 21.8529 29.7071 22.0404C29.5196 22.228 29.2652 22.3333 29 22.3333H21C20.7348 22.3333 20.4804 22.228 20.2929 22.0404C20.1054 21.8529 20 21.5985 20 21.3333C20 21.0681 20.1054 20.8137 20.2929 20.6262C20.4804 20.4387 20.7348 20.3333 21 20.3333ZM20 25.3333C20 25.0681 20.1054 24.8137 20.2929 24.6262C20.4804 24.4387 20.7348 24.3333 21 24.3333H29C29.2652 24.3333 29.5196 24.4387 29.7071 24.6262C29.8946 24.8137 30 25.0681 30 25.3333C30 25.5985 29.8946 25.8529 29.7071 26.0404C29.5196 26.228 29.2652 26.3333 29 26.3333H21C20.7348 26.3333 20.4804 26.228 20.2929 26.0404C20.1054 25.8529 20 25.5985 20 25.3333ZM33 34.3333H21.4637C21.8159 33.7257 22.001 33.0356 22 32.3333C22.0002 31.9943 21.9493 31.6571 21.8488 31.3333H34.5987C34.847 31.6086 34.99 31.9628 35.0025 32.3333C35.0025 32.5962 34.9507 32.8564 34.85 33.0993C34.7494 33.3421 34.6018 33.5627 34.4158 33.7484C34.2298 33.9342 34.0091 34.0814 33.7661 34.1818C33.5232 34.2822 33.2629 34.3336 33 34.3333Z" fill="#F23D2E"/>
</symbol></defs>
<!-- question -->
 <defs>
 <symbol id="question" viewBox="0 0 48 48" fill="none">
    <rect y="-6.10352e-05" width="48" height="48" rx="8" fill="#FFCDC9"/>
    <path d="M36.2325 20.8524C35.7612 20.3599 35.2738 19.8524 35.09 19.4062C34.92 18.9974 34.91 18.3199 34.9 17.6637C34.8813 16.4437 34.8612 15.0612 33.9 14.0999C32.9387 13.1387 31.5562 13.1187 30.3363 13.0999C29.68 13.0899 29.0025 13.0799 28.5938 12.9099C28.1488 12.7262 27.64 12.2387 27.1475 11.7674C26.285 10.9387 25.305 9.99994 24 9.99994C22.695 9.99994 21.7162 10.9387 20.8525 11.7674C20.36 12.2387 19.8525 12.7262 19.4062 12.9099C19 13.0799 18.32 13.0899 17.6637 13.0999C16.4437 13.1187 15.0612 13.1387 14.1 14.0999C13.1387 15.0612 13.125 16.4437 13.1 17.6637C13.09 18.3199 13.08 18.9974 12.91 19.4062C12.7262 19.8512 12.2387 20.3599 11.7675 20.8524C10.9387 21.7149 10 22.6949 10 23.9999C10 25.3049 10.9387 26.2837 11.7675 27.1474C12.2387 27.6399 12.7262 28.1474 12.91 28.5937C13.08 29.0024 13.09 29.6799 13.1 30.3362C13.1187 31.5562 13.1387 32.9387 14.1 33.8999C15.0612 34.8612 16.4437 34.8812 17.6637 34.8999C18.32 34.9099 18.9975 34.9199 19.4062 35.0899C19.8512 35.2737 20.36 35.7612 20.8525 36.2324C21.715 37.0612 22.695 37.9999 24 37.9999C25.305 37.9999 26.2837 37.0612 27.1475 36.2324C27.64 35.7612 28.1475 35.2737 28.5938 35.0899C29.0025 34.9199 29.68 34.9099 30.3363 34.8999C31.5562 34.8812 32.9387 34.8612 33.9 33.8999C34.8612 32.9387 34.8813 31.5562 34.9 30.3362C34.91 29.6799 34.92 29.0024 35.09 28.5937C35.2738 28.1487 35.7612 27.6399 36.2325 27.1474C37.0613 26.2849 38 25.3049 38 23.9999C38 22.6949 37.0613 21.7162 36.2325 20.8524ZM24 31.9999C23.7033 31.9999 23.4133 31.912 23.1666 31.7471C22.92 31.5823 22.7277 31.3481 22.6142 31.074C22.5006 30.7999 22.4709 30.4983 22.5288 30.2073C22.5867 29.9163 22.7296 29.6491 22.9393 29.4393C23.1491 29.2295 23.4164 29.0866 23.7074 29.0288C23.9983 28.9709 24.2999 29.0006 24.574 29.1141C24.8481 29.2277 25.0824 29.4199 25.2472 29.6666C25.412 29.9133 25.5 30.2033 25.5 30.4999C25.5 30.8978 25.342 31.2793 25.0607 31.5606C24.7794 31.8419 24.3978 31.9999 24 31.9999ZM25 25.9099V25.9999C25 26.2652 24.8946 26.5195 24.7071 26.707C24.5196 26.8946 24.2652 26.9999 24 26.9999C23.7348 26.9999 23.4804 26.8946 23.2929 26.707C23.1054 26.5195 23 26.2652 23 25.9999V24.9999C23 24.7347 23.1054 24.4804 23.2929 24.2928C23.4804 24.1053 23.7348 23.9999 24 23.9999C25.6537 23.9999 27 22.8749 27 21.4999C27 20.1249 25.6537 18.9999 24 18.9999C22.3463 18.9999 21 20.1249 21 21.4999V21.9999C21 22.2652 20.8946 22.5195 20.7071 22.707C20.5196 22.8946 20.2652 22.9999 20 22.9999C19.7348 22.9999 19.4804 22.8946 19.2929 22.707C19.1054 22.5195 19 22.2652 19 21.9999V21.4999C19 19.0187 21.2425 16.9999 24 16.9999C26.7575 16.9999 29 19.0187 29 21.4999C29 23.6724 27.28 25.4912 25 25.9099Z" fill="#F23D2E"/>
</symbol></defs>
<!-- blocnote -->
 <defs>
 <symbol id="bloc-note" viewBox="0 0 48 49" fill="none">
    <rect y="0.666626" width="48" height="48" rx="8" fill="#FFCDC9"/>
    <path d="M34 12.6666H31V11.6666C31 11.4014 30.8946 11.1471 30.7071 10.9595C30.5196 10.772 30.2652 10.6666 30 10.6666C29.7348 10.6666 29.4804 10.772 29.2929 10.9595C29.1054 11.1471 29 11.4014 29 11.6666V12.6666H19V11.6666C19 11.4014 18.8946 11.1471 18.7071 10.9595C18.5196 10.772 18.2652 10.6666 18 10.6666C17.7348 10.6666 17.4804 10.772 17.2929 10.9595C17.1054 11.1471 17 11.4014 17 11.6666V12.6666H14C13.4696 12.6666 12.9609 12.8773 12.5858 13.2524C12.2107 13.6275 12 14.1362 12 14.6666V34.6666C12 35.1971 12.2107 35.7058 12.5858 36.0808C12.9609 36.4559 13.4696 36.6666 14 36.6666H34C34.5304 36.6666 35.0391 36.4559 35.4142 36.0808C35.7893 35.7058 36 35.1971 36 34.6666V14.6666C36 14.1362 35.7893 13.6275 35.4142 13.2524C35.0391 12.8773 34.5304 12.6666 34 12.6666ZM29.2075 25.3741L23.2075 31.3741C23.1146 31.4671 23.0043 31.5409 22.8829 31.5912C22.7615 31.6415 22.6314 31.6674 22.5 31.6674C22.3686 31.6674 22.2385 31.6415 22.1171 31.5912C21.9957 31.5409 21.8854 31.4671 21.7925 31.3741L18.7925 28.3741C18.6049 28.1865 18.4994 27.932 18.4994 27.6666C18.4994 27.4013 18.6049 27.1468 18.7925 26.9591C18.9801 26.7715 19.2346 26.6661 19.5 26.6661C19.7654 26.6661 20.0199 26.7715 20.2075 26.9591L22.5 29.2529L27.7925 23.9591C27.8854 23.8662 27.9957 23.7925 28.1171 23.7422C28.2385 23.6919 28.3686 23.6661 28.5 23.6661C28.6314 23.6661 28.7615 23.6919 28.8829 23.7422C29.0043 23.7925 29.1146 23.8662 29.2075 23.9591C29.3004 24.052 29.3741 24.1623 29.4244 24.2837C29.4747 24.4051 29.5006 24.5352 29.5006 24.6666C29.5006 24.798 29.4747 24.9281 29.4244 25.0495C29.3741 25.1709 29.3004 25.2812 29.2075 25.3741ZM14 18.6666V14.6666H17V15.6666C17 15.9318 17.1054 16.1862 17.2929 16.3737C17.4804 16.5613 17.7348 16.6666 18 16.6666C18.2652 16.6666 18.5196 16.5613 18.7071 16.3737C18.8946 16.1862 19 15.9318 19 15.6666V14.6666H29V15.6666C29 15.9318 29.1054 16.1862 29.2929 16.3737C29.4804 16.5613 29.7348 16.6666 30 16.6666C30.2652 16.6666 30.5196 16.5613 30.7071 16.3737C30.8946 16.1862 31 15.9318 31 15.6666V14.6666H34V18.6666H14Z" fill="#F23D2E"/>
</symbol></defs>

<!-- sablier avec 5min -->
 <defs>
 <symbol id="sablier5" viewBox="0 0 89 58" fill="none" xmlns="http://www.w3.org/2000/svg">
    <rect y="9.58252" width="48" height="48" rx="8" fill="#FFCDC9"/>
    <path d="M33 27.0376V22.5826C33 22.0521 32.7893 21.5434 32.4142 21.1683C32.0391 20.7933 31.5304 20.5826 31 20.5826H17C16.4696 20.5826 15.9609 20.7933 15.5858 21.1683C15.2107 21.5434 15 22.0521 15 22.5826V27.0826C15.0007 27.3929 15.0733 27.6989 15.2121 27.9765C15.3509 28.2541 15.5521 28.4958 15.8 28.6826L22.3337 33.5826L15.8 38.4826C15.5521 38.6693 15.3509 38.911 15.2121 39.1886C15.0733 39.4662 15.0007 39.7722 15 40.0826V44.5826C15 45.113 15.2107 45.6217 15.5858 45.9968C15.9609 46.3718 16.4696 46.5826 17 46.5826H31C31.5304 46.5826 32.0391 46.3718 32.4142 45.9968C32.7893 45.6217 33 45.113 33 44.5826V40.1276C32.9993 39.8184 32.9273 39.5135 32.7896 39.2367C32.652 38.9598 32.4523 38.7185 32.2062 38.5313L25.6588 33.5826L32.2062 28.6338C32.4523 28.4466 32.652 28.2053 32.7896 27.9284C32.9273 27.6516 32.9993 27.3467 33 27.0376ZM31 22.5826V25.5826H17V22.5826H31ZM31 44.5826H17V40.0826L24 34.8326L31 40.1263V44.5826Z" fill="#F23D2E"/>
    <rect x="35" y="0.58252" width="54" height="27" rx="8" fill="#F23D2E"/>
    <path d="M45.688 19.8065C44.92 19.8065 44.248 19.6892 43.672 19.4545C43.1067 19.2199 42.6693 18.8892 42.36 18.4625C42.0507 18.0359 41.8907 17.5292 41.88 16.9425L43.512 16.5745C43.5653 17.1399 43.7733 17.5772 44.136 17.8865C44.4987 18.1959 45.0107 18.3505 45.672 18.3505C46.3867 18.3505 46.9413 18.1585 47.336 17.7745C47.7307 17.3905 47.928 16.7985 47.928 15.9985C47.928 15.6785 47.8907 15.3799 47.816 15.1025C47.752 14.8252 47.6453 14.5852 47.496 14.3825C47.3467 14.1692 47.1493 14.0039 46.904 13.8865C46.6587 13.7585 46.3547 13.6945 45.992 13.6945C45.704 13.6945 45.448 13.7319 45.224 13.8065C45 13.8812 44.808 13.9825 44.648 14.1105C44.488 14.2385 44.3493 14.3879 44.232 14.5585C44.1253 14.7185 44.0347 14.8945 43.96 15.0865H42.088L42.456 9.02252H49.224V10.5105H43.928L43.688 14.0305H43.88C44.104 13.4332 44.4613 13.0012 44.952 12.7345C45.4533 12.4679 45.992 12.3345 46.568 12.3345C47.2827 12.3345 47.8693 12.4892 48.328 12.7985C48.7973 13.0972 49.144 13.5185 49.368 14.0625C49.6027 14.6065 49.72 15.2412 49.72 15.9665C49.72 16.8732 49.544 17.6092 49.192 18.1745C48.8507 18.7399 48.376 19.1559 47.768 19.4225C47.16 19.6785 46.4667 19.8065 45.688 19.8065ZM55.7156 19.5825V14.3665V11.2625H57.1876L57.0916 13.8545H57.3796C57.5183 13.2252 57.705 12.7079 57.9396 12.3025C58.185 11.8865 58.4783 11.5772 58.8196 11.3745C59.1716 11.1612 59.577 11.0545 60.0356 11.0545C60.5476 11.0545 60.969 11.1772 61.2996 11.4225C61.641 11.6679 61.897 11.9985 62.0676 12.4145C62.249 12.8305 62.345 13.2999 62.3556 13.8225H62.6116C62.7503 13.2145 62.9423 12.7079 63.1876 12.3025C63.4436 11.8865 63.7583 11.5772 64.1316 11.3745C64.505 11.1612 64.921 11.0545 65.3796 11.0545C65.817 11.0545 66.201 11.1452 66.5316 11.3265C66.8623 11.4972 67.1396 11.7532 67.3636 12.0945C67.5876 12.4359 67.753 12.8625 67.8596 13.3745C67.977 13.8759 68.0356 14.4572 68.0356 15.1185V19.5825H66.2916V15.3425C66.2916 14.7239 66.2383 14.2119 66.1316 13.8065C66.025 13.4012 65.8596 13.0972 65.6356 12.8945C65.4116 12.6919 65.129 12.5905 64.7876 12.5905C64.4036 12.5905 64.0623 12.7239 63.7636 12.9905C63.4756 13.2465 63.241 13.6039 63.0596 14.0625C62.8783 14.5212 62.7663 15.0492 62.7236 15.6465V19.5825H61.0116V15.4545C61.0116 14.8145 60.9583 14.2865 60.8516 13.8705C60.745 13.4439 60.5796 13.1239 60.3556 12.9105C60.1316 12.6972 59.849 12.5905 59.5076 12.5905C59.1023 12.5905 58.7503 12.7292 58.4516 13.0065C58.1636 13.2732 57.9343 13.6412 57.7636 14.1105C57.593 14.5799 57.4863 15.1079 57.4436 15.6945V19.5825H55.7156ZM70.3094 19.5825V11.2625H72.0374V19.5825H70.3094ZM71.1734 9.87052C70.8 9.87052 70.5174 9.79585 70.3254 9.64652C70.1334 9.48652 70.0374 9.25185 70.0374 8.94252C70.0374 8.64385 70.1334 8.41452 70.3254 8.25452C70.5174 8.09452 70.8 8.01452 71.1734 8.01452C71.5574 8.01452 71.8454 8.09452 72.0374 8.25452C72.2294 8.41452 72.3254 8.64385 72.3254 8.94252C72.3254 9.25185 72.2294 9.48652 72.0374 9.64652C71.8454 9.79585 71.5574 9.87052 71.1734 9.87052ZM74.45 19.5825V14.4625V11.2625H75.954L75.858 13.8545H76.13C76.2793 13.2145 76.4767 12.6919 76.722 12.2865C76.978 11.8705 77.298 11.5612 77.682 11.3585C78.0767 11.1559 78.5353 11.0545 79.058 11.0545C79.986 11.0545 80.69 11.3852 81.17 12.0465C81.6607 12.7079 81.906 13.7159 81.906 15.0705V19.5825H80.146V15.2465C80.146 14.3185 80.0073 13.6412 79.73 13.2145C79.4527 12.7772 79.0367 12.5585 78.482 12.5585C78.002 12.5585 77.5913 12.7132 77.25 13.0225C76.9193 13.3212 76.6633 13.7159 76.482 14.2065C76.3007 14.6972 76.1993 15.2305 76.178 15.8065V19.5825H74.45Z" fill="#FFCDC9"/>
</symbol></defs>
<!-- note de musique -->
 <defs>
 <symbol id="musique" width="48" height="48" viewBox="0 0 48 48" fill="none" xmlns="http://www.w3.org/2000/svg">
    <rect width="48" height="48" rx="8" fill="#FFCDC9"/>
    <path d="M34.615 10.2137C34.4958 10.1193 34.3564 10.0536 34.2076 10.022C34.0589 9.99031 33.9048 9.99348 33.7575 10.0312L17.7575 14.0312C17.5414 14.0853 17.3495 14.2099 17.2122 14.3854C17.075 14.5609 17.0003 14.7772 17 15V28.7625C16.1657 28.2051 15.169 27.9424 14.1684 28.0164C13.1677 28.0903 12.2205 28.4966 11.4772 29.1706C10.7339 29.8446 10.2372 30.7477 10.066 31.7364C9.89479 32.7251 10.0589 33.7426 10.5324 34.6273C11.0058 35.512 11.7613 36.2131 12.6788 36.6192C13.5964 37.0252 14.6233 37.113 15.5965 36.8685C16.5696 36.624 17.4331 36.0613 18.0498 35.2698C18.6665 34.4783 19.0009 33.5034 19 32.5V20.7812L33 17.2812V24.7625C32.1657 24.2051 31.169 23.9424 30.1684 24.0164C29.1677 24.0903 28.2205 24.4966 27.4772 25.1706C26.7339 25.8446 26.2372 26.7477 26.066 27.7364C25.8948 28.7251 26.0589 29.7426 26.5324 30.6273C27.0058 31.512 27.7613 32.2131 28.6788 32.6192C29.5964 33.0252 30.6233 33.113 31.5965 32.8685C32.5696 32.624 33.4331 32.0613 34.0498 31.2698C34.6665 30.4783 35.0009 29.5034 35 28.5V11C34.9997 10.8483 34.9648 10.6987 34.8981 10.5625C34.8314 10.4263 34.7346 10.307 34.615 10.2137Z" fill="#F23D2E"/>
</symbol></defs>

<!-- popcorn -->
<defs>
 <symbol id="popcorn" width="198" height="210" viewBox="0 0 198 210" fill="none" xmlns="http://www.w3.org/2000/svg">
    <path d="M62.2359 62.6128L67.1419 57.9047C67.2466 57.8043 67.337 57.6902 67.4301 57.5791C67.9781 56.9248 68.8917 56.6845 69.7001 57.0052L154.891 90.7972C155.72 91.1258 156.219 91.9549 156.147 92.8194C156.131 93.0229 156.106 93.2271 156.12 93.4308L156.581 100.004C156.609 100.411 156.513 100.817 156.304 101.167L108.291 181.809C107.766 182.691 107.177 183.539 106.375 184.18C103.081 186.813 92.1878 192.869 68.8425 183.609C47.0359 174.959 41.5081 163.706 40.1091 158.743C39.6417 157.085 39.8382 155.354 40.2371 153.678L61.675 63.5928C61.7639 63.219 61.9587 62.8788 62.2359 62.6128Z" fill="#F7F2EC" stroke="white" stroke-width="2"/>
    <path d="M117.155 61.8367C130.141 66.9878 140.774 74.0245 147.498 81.0877C154.447 88.3882 156.316 94.6483 154.679 98.7749C153.042 102.901 147.39 106.178 137.326 106.73C127.589 107.264 115.024 105.099 102.038 99.9479C89.0515 94.7967 78.419 87.7601 71.6954 80.6969C64.7461 73.3964 62.8768 67.1362 64.5137 63.0097C66.1505 58.8831 71.8027 55.6064 81.8667 55.0545C91.6038 54.5206 104.169 56.6855 117.155 61.8367Z" stroke="white" stroke-width="7"/>
    <path d="M152.762 102.318C143.682 108.936 128.547 110.999 101.852 100.41C75.1561 89.8206 59.2615 74.8865 64.0469 62.8223" stroke="white" stroke-width="5" stroke-linecap="square"/>
    <mask id="mask0_451_111" style="mask-type:alpha" maskUnits="userSpaceOnUse" x="40" y="70" width="113" height="119">
    <path d="M107.064 182.493C107.064 182.493 97.3562 194.377 69.2572 183.231C41.1582 172.086 40.8867 156.232 40.8867 156.232L61.093 70.2616C61.093 70.2616 63.9282 87.5231 98.8821 102.464C133.836 117.404 152.218 106.405 152.218 106.405L107.064 182.493Z" fill="#F7F2EC"/>
    </mask>
    <g mask="url(#mask0_451_111)">
    <rect width="21.7795" height="106.488" transform="matrix(0.958395 0.285446 -0.287136 0.95789 55.9844 65.4941)" fill="#F23D2E"/>
    <rect x="95.3281" y="86.8203" width="21.7778" height="100" transform="rotate(21.6363 95.3281 86.8203)" fill="#F23D2E"/>
    <rect width="21.7795" height="104.247" transform="matrix(0.893473 0.449117 -0.447541 0.894263 138.352 98.5)" fill="#F23D2E"/>
    <rect width="21.7795" height="99.9924" transform="matrix(0.893473 0.449117 -0.447541 0.894263 173.266 116.916)" fill="#F23D2E"/>
    </g>
    <path fill-rule="evenodd" clip-rule="evenodd" d="M38.5218 78.6101C38.5122 76.8421 37.7749 75.1517 36.4816 73.9328L35.4701 72.9797L36.8599 72.9789C38.6371 72.978 40.3327 72.2527 41.5516 70.9719L42.5048 69.9703L42.5122 71.3529C42.5217 73.121 43.2591 74.8114 44.5524 76.0303L45.5638 76.9834L44.1741 76.9841C42.3969 76.985 40.7013 77.7104 39.4824 78.9912L38.5292 79.9928L38.5218 78.6101Z" stroke="white" stroke-width="1.8" stroke-linejoin="round"/>
    <path fill-rule="evenodd" clip-rule="evenodd" d="M160.975 51.8816C160.965 50.1136 160.228 48.4231 158.935 47.2043L157.923 46.2511L159.313 46.2504C161.09 46.2495 162.786 45.5242 164.005 44.2434L164.958 43.2418L164.965 44.6244C164.975 46.3925 165.712 48.0829 167.006 49.3017L168.017 50.2549L166.627 50.2556C164.85 50.2565 163.154 50.9819 161.936 52.2627L160.982 53.2643L160.975 51.8816Z" stroke="white" stroke-width="1.8" stroke-linejoin="round"/>
    <path fill-rule="evenodd" clip-rule="evenodd" d="M140.912 173.011C140.903 171.242 140.166 169.552 138.872 168.333L137.861 167.38L139.251 167.379C141.028 167.378 142.723 166.653 143.942 165.372L144.895 164.371L144.903 165.753C144.912 167.521 145.65 169.212 146.943 170.431L147.954 171.384L146.565 171.385C144.788 171.385 143.092 172.111 141.873 173.392L140.92 174.393L140.912 173.011Z" stroke="white" stroke-width="1.8" stroke-linejoin="round"/>
    <path d="M75.3958 60.6128C63.2323 56.1645 62.7655 65.1706 64.0525 70.2296C64.0525 70.2296 65.8283 88.3713 101.2 102.402C138.846 117.335 155.051 102.247 155.051 102.247C160.052 97.7755 156.49 91.8386 153.773 88.4079C163.998 74.0185 151.987 69.9758 144.704 69.7531C143.84 63.3879 136.965 61.9782 133.635 62.069C134.382 50.6959 123.638 50.1042 118.172 51.23C104.586 26.6429 92.8548 40.7173 88.6875 50.8278C78.9244 45.073 75.7584 54.9533 75.3958 60.6128Z" fill="#FFE3E1" stroke="white" stroke-width="2"/>
    <path d="M79.4939 70.3364C84.441 66.1053 94.0432 61.5415 94.46 75.4849C94.4912 76.5299 95.2729 77.4181 96.3021 77.6014C104.046 78.9806 102.428 83.4011 102.203 89.0267" stroke="white" stroke-width="2" stroke-linecap="round"/>
    <path d="M91.0864 66.8701C95.8788 59.5326 112.33 52.0219 112.69 70.71C112.717 72.0982 114.042 73.166 115.411 72.9347C124.046 71.476 131.008 75.6347 127.024 84.3935C126.194 86.2182 127.947 88.6949 129.901 88.249C137.819 86.4425 143.396 87.7768 141.785 100.428" stroke="white" stroke-width="2" stroke-linecap="round"/>
</symbol></defs>

<!-- date -->
<defs>
 <symbol id="date" width="48" height="49" viewBox="0 0 48 49" fill="none" xmlns="http://www.w3.org/2000/svg">
    <rect y="0.333344" width="48" height="48" rx="8" fill="#FFCDC9"/>
    <path d="M34 12.3333H31V11.3333C31 11.0681 30.8946 10.8138 30.7071 10.6262C30.5196 10.4387 30.2652 10.3333 30 10.3333C29.7348 10.3333 29.4804 10.4387 29.2929 10.6262C29.1054 10.8138 29 11.0681 29 11.3333V12.3333H19V11.3333C19 11.0681 18.8946 10.8138 18.7071 10.6262C18.5196 10.4387 18.2652 10.3333 18 10.3333C17.7348 10.3333 17.4804 10.4387 17.2929 10.6262C17.1054 10.8138 17 11.0681 17 11.3333V12.3333H14C13.4696 12.3333 12.9609 12.5441 12.5858 12.9191C12.2107 13.2942 12 13.8029 12 14.3333V34.3333C12 34.8638 12.2107 35.3725 12.5858 35.7476C12.9609 36.1226 13.4696 36.3333 14 36.3333H34C34.5304 36.3333 35.0391 36.1226 35.4142 35.7476C35.7893 35.3725 36 34.8638 36 34.3333V14.3333C36 13.8029 35.7893 13.2942 35.4142 12.9191C35.0391 12.5441 34.5304 12.3333 34 12.3333ZM18.5 31.3333C18.2033 31.3333 17.9133 31.2454 17.6666 31.0805C17.42 30.9157 17.2277 30.6815 17.1142 30.4074C17.0006 30.1333 16.9709 29.8317 17.0288 29.5407C17.0867 29.2497 17.2296 28.9825 17.4393 28.7727C17.6491 28.5629 17.9164 28.42 18.2074 28.3622C18.4983 28.3043 18.7999 28.334 19.074 28.4475C19.3481 28.5611 19.5824 28.7533 19.7472 29C19.912 29.2467 20 29.5367 20 29.8333C20 30.2312 19.842 30.6127 19.5607 30.894C19.2794 31.1753 18.8978 31.3333 18.5 31.3333ZM24 31.3333C23.7033 31.3333 23.4133 31.2454 23.1666 31.0805C22.92 30.9157 22.7277 30.6815 22.6142 30.4074C22.5006 30.1333 22.4709 29.8317 22.5288 29.5407C22.5867 29.2497 22.7296 28.9825 22.9393 28.7727C23.1491 28.5629 23.4164 28.42 23.7074 28.3622C23.9983 28.3043 24.2999 28.334 24.574 28.4475C24.8481 28.5611 25.0824 28.7533 25.2472 29C25.412 29.2467 25.5 29.5367 25.5 29.8333C25.5 30.2312 25.342 30.6127 25.0607 30.894C24.7794 31.1753 24.3978 31.3333 24 31.3333ZM24 26.3333C23.7033 26.3333 23.4133 26.2454 23.1666 26.0805C22.92 25.9157 22.7277 25.6815 22.6142 25.4074C22.5006 25.1333 22.4709 24.8317 22.5288 24.5407C22.5867 24.2497 22.7296 23.9825 22.9393 23.7727C23.1491 23.5629 23.4164 23.42 23.7074 23.3622C23.9983 23.3043 24.2999 23.334 24.574 23.4475C24.8481 23.5611 25.0824 23.7533 25.2472 24C25.412 24.2467 25.5 24.5367 25.5 24.8333C25.5 25.2312 25.342 25.6127 25.0607 25.894C24.7794 26.1753 24.3978 26.3333 24 26.3333ZM29.5 31.3333C29.2033 31.3333 28.9133 31.2454 28.6666 31.0805C28.42 30.9157 28.2277 30.6815 28.1142 30.4074C28.0007 30.1333 27.9709 29.8317 28.0288 29.5407C28.0867 29.2497 28.2296 28.9825 28.4393 28.7727C28.6491 28.5629 28.9164 28.42 29.2074 28.3622C29.4983 28.3043 29.7999 28.334 30.074 28.4475C30.3481 28.5611 30.5824 28.7533 30.7472 29C30.912 29.2467 31 29.5367 31 29.8333C31 30.2312 30.842 30.6127 30.5607 30.894C30.2794 31.1753 29.8978 31.3333 29.5 31.3333ZM29.5 26.3333C29.2033 26.3333 28.9133 26.2454 28.6666 26.0805C28.42 25.9157 28.2277 25.6815 28.1142 25.4074C28.0007 25.1333 27.9709 24.8317 28.0288 24.5407C28.0867 24.2497 28.2296 23.9825 28.4393 23.7727C28.6491 23.5629 28.9164 23.42 29.2074 23.3622C29.4983 23.3043 29.7999 23.334 30.074 23.4475C30.3481 23.5611 30.5824 23.7533 30.7472 24C30.912 24.2467 31 24.5367 31 24.8333C31 25.2312 30.842 25.6127 30.5607 25.894C30.2794 26.1753 29.8978 26.3333 29.5 26.3333ZM34 18.3333H14V14.3333H17V15.3333C17 15.5986 17.1054 15.8529 17.2929 16.0405C17.4804 16.228 17.7348 16.3333 18 16.3333C18.2652 16.3333 18.5196 16.228 18.7071 16.0405C18.8946 15.8529 19 15.5986 19 15.3333V14.3333H29V15.3333C29 15.5986 29.1054 15.8529 29.2929 16.0405C29.4804 16.228 29.7348 16.3333 30 16.3333C30.2652 16.3333 30.5196 16.228 30.7071 16.0405C30.8946 15.8529 31 15.5986 31 15.3333V14.3333H34V18.3333Z" fill="#F23D2E"/>
</symbol></defs>
<!-- lieu -->
<defs>
 <symbol id="lieu" viewBox="0 0 48 48" fill="none" xmlns="http://www.w3.org/2000/svg">
    <rect width="48" height="48" rx="8" fill="#FFCDC9"/>
    <path d="M24 10C21.0836 10.0033 18.2877 11.1633 16.2255 13.2255C14.1633 15.2877 13.0033 18.0836 13 21C13 30.4125 23 37.5212 23.4263 37.8188C23.5944 37.9365 23.7947 37.9997 24 37.9997C24.2053 37.9997 24.4056 37.9365 24.5737 37.8188C25 37.5212 35 30.4125 35 21C34.9967 18.0836 33.8367 15.2877 31.7745 13.2255C29.7123 11.1633 26.9164 10.0033 24 10ZM24 17C24.7911 17 25.5645 17.2346 26.2223 17.6741C26.8801 18.1136 27.3928 18.7384 27.6955 19.4693C27.9983 20.2002 28.0775 21.0044 27.9231 21.7804C27.7688 22.5563 27.3878 23.269 26.8284 23.8284C26.269 24.3878 25.5563 24.7688 24.7804 24.9231C24.0044 25.0775 23.2002 24.9983 22.4693 24.6955C21.7384 24.3928 21.1136 23.8801 20.6741 23.2223C20.2346 22.5645 20 21.7911 20 21C20 19.9391 20.4214 18.9217 21.1716 18.1716C21.9217 17.4214 22.9391 17 24 17Z" fill="#F23D2E"/>
</symbol></defs>
<!-- handshake -->
<defs>
 <symbol id="handshake" viewBox="0 0 32 23" fill="none" xmlns="http://www.w3.org/2000/svg">
    <path d="M31.7884 7.82212L28.5984 1.43962C28.4809 1.2047 28.3183 0.995232 28.1198 0.823176C27.9213 0.651121 27.6909 0.519848 27.4417 0.436854C27.1925 0.35386 26.9293 0.32077 26.6673 0.339474C26.4053 0.358179 26.1496 0.428311 25.9147 0.545866L22.8059 2.09962L16.2572 0.367116C16.0891 0.323388 15.9127 0.323388 15.7447 0.367116L9.19592 2.09962L6.08717 0.545866C5.85227 0.428311 5.59652 0.358179 5.33452 0.339474C5.07251 0.32077 4.80939 0.35386 4.56017 0.436854C4.31096 0.519848 4.08053 0.651121 3.88206 0.823176C3.68358 0.995232 3.52094 1.2047 3.40342 1.43962L0.213422 7.82087C0.0958669 8.05576 0.0257347 8.31152 0.00703034 8.57352C-0.0116741 8.83553 0.0214157 9.09865 0.10441 9.34786C0.187404 9.59708 0.318677 9.8275 0.490733 10.026C0.662788 10.2245 0.872255 10.3871 1.10717 10.5046L4.48217 12.1934L11.4184 17.1471C11.5206 17.2198 11.6355 17.2728 11.7572 17.3034L19.7572 19.3034C19.9247 19.3454 20.1003 19.3433 20.2668 19.2973C20.4332 19.2513 20.585 19.1629 20.7072 19.0409L25.7072 14.0409L27.5922 12.1559L30.8947 10.5046C31.3688 10.2673 31.7293 9.85139 31.8968 9.34838C32.0644 8.84536 32.0254 8.29639 31.7884 7.82212ZM24.9272 11.9934L20.6259 8.54837C20.4332 8.39405 20.1903 8.31646 19.9438 8.33054C19.6973 8.34462 19.4648 8.44936 19.2909 8.62462C17.0647 10.8671 14.5834 10.5834 13.0009 9.58337L18.4059 4.33337H22.3822L25.7834 11.1346L24.9272 11.9934ZM19.6934 17.2259L12.4284 15.4096L6.27842 11.0171L9.77842 4.01712L16.0009 2.36837L17.2259 2.69212L11.6009 8.15212L11.5909 8.16337C11.3792 8.37511 11.2177 8.63169 11.1184 8.91419C11.019 9.19668 10.9844 9.49788 11.017 9.79554C11.0497 10.0932 11.1487 10.3797 11.3069 10.634C11.4651 10.8883 11.6783 11.1038 11.9309 11.2646C14.5009 12.9059 17.6022 12.6396 20.0447 10.6396L23.5009 13.4159L19.6934 17.2259ZM16.4784 21.5759C16.4244 21.792 16.2997 21.9839 16.1242 22.1211C15.9487 22.2584 15.7325 22.3331 15.5097 22.3334C15.4275 22.3333 15.3457 22.3232 15.2659 22.3034L10.0522 20.9996C9.93034 20.9696 9.81537 20.9165 9.71342 20.8434L6.41967 18.4909C6.21715 18.3319 6.08377 18.1008 6.0473 17.846C6.01084 17.5911 6.0741 17.3319 6.22391 17.1225C6.37373 16.9131 6.59855 16.7695 6.85156 16.7217C7.10457 16.6739 7.36628 16.7255 7.58217 16.8659L10.7209 19.1084L15.7509 20.3634C16.0082 20.4277 16.2293 20.5916 16.3657 20.819C16.5022 21.0464 16.5427 21.3186 16.4784 21.5759Z" fill="currentColor"/>
</symbol></defs>
<!-- tchin -->
<defs>
 <symbol id="tchin"  width="32" height="33" viewBox="0 0 32 33" fill="none" xmlns="http://www.w3.org/2000/svg">
    <path d="M26.7412 27.4093L24.535 28.0005L23.2325 23.1393C24.2627 22.6233 25.0835 21.7679 25.5565 20.7173C26.0294 19.6666 26.1256 18.485 25.8288 17.3718C24.2537 11.4968 20.9813 6.34425 20.8425 6.128C20.7296 5.95153 20.5641 5.81497 20.3695 5.73759C20.1748 5.66021 19.9607 5.64593 19.7575 5.69675L17.025 6.3805C17.025 5.34925 17.0025 4.70175 16.9988 4.6205C16.9888 4.40568 16.9098 4.1998 16.7736 4.03339C16.6374 3.86699 16.4511 3.74894 16.2425 3.69675L12.2425 2.69675C12.0393 2.64593 11.8252 2.66021 11.6305 2.73759C11.4359 2.81497 11.2704 2.95153 11.1575 3.128C11.0188 3.34425 7.74625 8.49425 6.17125 14.378C5.87442 15.4913 5.97059 16.6729 6.44353 17.7235C6.91648 18.7742 7.73728 19.6296 8.7675 20.1455L7.465 25.0005L5.25875 24.4093C5.00248 24.3406 4.72945 24.3766 4.49972 24.5093C4.26999 24.642 4.10237 24.8605 4.03375 25.1168C3.96513 25.373 4.00111 25.646 4.13379 25.8758C4.26648 26.1055 4.48498 26.2731 4.74125 26.3418L10.7413 27.9493C10.8257 27.9714 10.9127 27.9828 11 27.983C11.2428 27.9833 11.4774 27.8952 11.6601 27.7352C11.8427 27.5752 11.9609 27.3542 11.9926 27.1135C12.0243 26.8727 11.9673 26.6287 11.8323 26.4269C11.6972 26.2251 11.4934 26.0793 11.2587 26.0168L9.39625 25.5168L10.6987 20.6555C10.8 20.6618 10.9 20.6655 11 20.6655C11.9921 20.6627 12.961 20.3657 13.7843 19.8121C14.6076 19.2586 15.2482 18.4732 15.625 17.5555C15.7725 18.3518 15.95 19.158 16.1637 19.958C16.4499 21.0219 17.0788 21.9619 17.9531 22.6323C18.8273 23.3028 19.8982 23.6664 21 23.6668C21.1 23.6668 21.2 23.6668 21.3013 23.6568L22.6038 28.518L20.7412 29.018C20.5077 29.0815 20.3051 29.2275 20.171 29.4289C20.0369 29.6304 19.9804 29.8736 20.012 30.1136C20.0436 30.3535 20.1612 30.5738 20.3428 30.7337C20.5245 30.8936 20.758 30.9822 21 30.983C21.0873 30.9828 21.1743 30.9714 21.2588 30.9493L27.2588 29.3418C27.515 29.2731 27.7335 29.1055 27.8662 28.8758C27.9989 28.646 28.0349 28.373 27.9662 28.1168C27.8976 27.8605 27.73 27.642 27.5003 27.5093C27.2705 27.3766 26.9975 27.3406 26.7412 27.4093ZM19.5275 7.8155C19.875 8.403 20.4312 9.383 21.0525 10.623L17 11.638C16.9475 10.388 16.9525 9.35675 16.9688 8.66425C16.9688 8.59425 16.975 8.52425 16.9788 8.45425L19.5275 7.8155ZM12.4725 4.8155L15.0188 5.45175C15.0262 5.98675 15.0188 6.7855 14.9925 7.7605C14.985 7.91175 14.9725 8.15925 14.9637 8.4905C14.9637 8.6155 14.9513 8.7405 14.9438 8.8655L10.8363 7.8455C11.5 6.5005 12.105 5.43675 12.4725 4.8155ZM23.105 6.11425C23.0461 5.99674 23.011 5.86877 23.0017 5.73768C22.9923 5.60658 23.0089 5.47492 23.0505 5.35024C23.092 5.22555 23.1578 5.11028 23.2439 5.01102C23.33 4.91176 23.4349 4.83046 23.5525 4.77175L25.5525 3.77175C25.67 3.71299 25.798 3.67795 25.9291 3.66863C26.0601 3.65931 26.1918 3.67591 26.3164 3.71746C26.4411 3.75902 26.5563 3.82472 26.6556 3.91082C26.7549 3.99691 26.8362 4.10172 26.895 4.21925C26.9538 4.33679 26.9888 4.46474 26.9981 4.59582C27.0074 4.72689 26.9908 4.85852 26.9493 4.98318C26.9077 5.10785 26.842 5.2231 26.7559 5.32237C26.6698 5.42165 26.565 5.50299 26.4475 5.56175L24.4475 6.56175C24.33 6.62061 24.202 6.65572 24.0709 6.66507C23.9398 6.67443 23.8082 6.65786 23.6835 6.6163C23.5588 6.57473 23.4435 6.509 23.3443 6.42286C23.245 6.33671 23.1637 6.23185 23.105 6.11425ZM29 9.66675C29 9.93197 28.8946 10.1863 28.7071 10.3739C28.5196 10.5614 28.2652 10.6668 28 10.6668H26C25.7348 10.6668 25.4804 10.5614 25.2929 10.3739C25.1054 10.1863 25 9.93197 25 9.66675C25 9.40154 25.1054 9.14718 25.2929 8.95965C25.4804 8.77211 25.7348 8.66675 26 8.66675H28C28.2652 8.66675 28.5196 8.77211 28.7071 8.95965C28.8946 9.14718 29 9.40154 29 9.66675ZM4.105 3.21925C4.1637 3.10166 4.24501 2.99679 4.34427 2.91065C4.44353 2.8245 4.5588 2.75877 4.68349 2.71721C4.80817 2.67565 4.93983 2.65907 5.07092 2.66843C5.20202 2.67779 5.32998 2.7129 5.4475 2.77175L7.4475 3.77175C7.56503 3.83052 7.66984 3.91186 7.75594 4.01113C7.84203 4.1104 7.90774 4.22566 7.94929 4.35032C7.99085 4.47499 8.00744 4.60661 7.99812 4.73769C7.98881 4.86876 7.95377 4.99672 7.895 5.11425C7.83623 5.23179 7.75489 5.33659 7.65562 5.42269C7.55635 5.50879 7.44109 5.57449 7.31643 5.61604C7.06466 5.69997 6.78987 5.68044 6.5525 5.56175L4.5525 4.56175C4.43491 4.50305 4.33004 4.42174 4.2439 4.32248C4.15775 4.22322 4.09202 4.10795 4.05046 3.98327C4.0089 3.85858 3.99232 3.72693 4.00168 3.59583C4.01104 3.46474 4.04615 3.33677 4.105 3.21925ZM5 9.66675H3C2.73478 9.66675 2.48043 9.5614 2.29289 9.37386C2.10536 9.18632 2 8.93197 2 8.66675C2 8.40154 2.10536 8.14718 2.29289 7.95965C2.48043 7.77211 2.73478 7.66675 3 7.66675H5C5.26522 7.66675 5.51957 7.77211 5.70711 7.95965C5.89464 8.14718 6 8.40154 6 8.66675C6 8.93197 5.89464 9.18632 5.70711 9.37386C5.51957 9.5614 5.26522 9.66675 5 9.66675Z" fill="currentColor"/>
</symbol></defs>
<!-- instagram -->
<defs>
 <symbol id="instagram"  viewBox="0 0 17 17" fill="none" xmlns="http://www.w3.org/2000/svg">
    <path d="M12.25 0.541748H4.75C3.59006 0.542989 2.47798 1.00432 1.65778 1.82453C0.837576 2.64473 0.376241 3.75681 0.375 4.91675V12.4167C0.376241 13.5767 0.837576 14.6888 1.65778 15.509C2.47798 16.3292 3.59006 16.7905 4.75 16.7917H12.25C13.4099 16.7905 14.522 16.3292 15.3422 15.509C16.1624 14.6888 16.6238 13.5767 16.625 12.4167V4.91675C16.6238 3.75681 16.1624 2.64473 15.3422 1.82453C14.522 1.00432 13.4099 0.542989 12.25 0.541748ZM8.5 12.4167C7.75832 12.4167 7.0333 12.1968 6.41661 11.7848C5.79993 11.3727 5.31928 10.787 5.03545 10.1018C4.75162 9.41659 4.67736 8.66259 4.82206 7.93516C4.96675 7.20773 5.3239 6.53954 5.84835 6.0151C6.3728 5.49065 7.04098 5.1335 7.76841 4.9888C8.49584 4.84411 9.24984 4.91837 9.93506 5.2022C10.6203 5.48603 11.206 5.96668 11.618 6.58336C12.0301 7.20004 12.25 7.92507 12.25 8.66675C12.249 9.66099 11.8535 10.6142 11.1505 11.3173C10.4475 12.0203 9.49424 12.4157 8.5 12.4167ZM13.1875 4.91675C13.0021 4.91675 12.8208 4.86176 12.6667 4.75875C12.5125 4.65574 12.3923 4.50932 12.3214 4.33801C12.2504 4.16671 12.2318 3.97821 12.268 3.79635C12.3042 3.61449 12.3935 3.44745 12.5246 3.31634C12.6557 3.18522 12.8227 3.09594 13.0046 3.05976C13.1865 3.02359 13.375 3.04215 13.5463 3.11311C13.7176 3.18407 13.864 3.30423 13.967 3.4584C14.07 3.61257 14.125 3.79383 14.125 3.97925C14.125 4.22789 14.0262 4.46635 13.8504 4.64216C13.6746 4.81798 13.4361 4.91675 13.1875 4.91675ZM11 8.66675C11 9.1612 10.8534 9.64455 10.5787 10.0557C10.304 10.4668 9.91352 10.7872 9.45671 10.9764C8.99989 11.1657 8.49723 11.2152 8.01227 11.1187C7.52732 11.0222 7.08186 10.7841 6.73223 10.4345C6.3826 10.0849 6.1445 9.63943 6.04804 9.15447C5.95157 8.66952 6.00108 8.16685 6.1903 7.71004C6.37952 7.25322 6.69995 6.86278 7.11107 6.58807C7.5222 6.31337 8.00555 6.16675 8.5 6.16675C9.16304 6.16675 9.79893 6.43014 10.2678 6.89898C10.7366 7.36782 11 8.00371 11 8.66675Z" fill="currentColor"/>
</symbol></defs>
<!-- facebook -->
<defs>
 <symbol id="facebook" viewBox="0 0 17 17" fill="none" xmlns="http://www.w3.org/2000/svg">
<path d="M16.625 8.66679C16.6224 10.6526 15.8938 12.5689 14.5764 14.0548C13.2591 15.5407 11.4438 16.4936 9.47262 16.734C9.42873 16.7389 9.38428 16.7346 9.34221 16.7211C9.30014 16.7076 9.2614 16.6854 9.22855 16.6559C9.1957 16.6263 9.16948 16.5902 9.15163 16.5498C9.13377 16.5094 9.12468 16.4656 9.12496 16.4215V10.5418H11C11.0856 10.542 11.1704 10.5245 11.2491 10.4906C11.3278 10.4566 11.3986 10.4068 11.4572 10.3443C11.5158 10.2818 11.561 10.208 11.5898 10.1273C11.6187 10.0466 11.6306 9.96088 11.625 9.87538C11.6112 9.71467 11.537 9.56514 11.4174 9.45687C11.2979 9.3486 11.1417 9.28962 10.9804 9.29179H9.12496V7.41679C9.12496 7.08527 9.25666 6.76733 9.49108 6.53291C9.7255 6.29849 10.0434 6.16679 10.375 6.16679H11.625C11.7106 6.16698 11.7954 6.14955 11.8741 6.11558C11.9528 6.08162 12.0236 6.03184 12.0822 5.96934C12.1408 5.90685 12.186 5.83297 12.2148 5.7523C12.2437 5.67162 12.2556 5.58588 12.25 5.50038C12.2361 5.33939 12.1618 5.18964 12.0419 5.08133C11.922 4.97302 11.7654 4.91422 11.6039 4.91679H10.375C9.71192 4.91679 9.07604 5.18018 8.6072 5.64902C8.13836 6.11786 7.87496 6.75375 7.87496 7.41679V9.29179H5.99996C5.91428 9.2916 5.82948 9.30903 5.75082 9.343C5.67216 9.37697 5.60133 9.42674 5.54271 9.48924C5.4841 9.55173 5.43896 9.62561 5.41011 9.70628C5.38125 9.78696 5.36929 9.8727 5.37496 9.9582C5.38879 10.1192 5.46316 10.2689 5.58306 10.3773C5.70297 10.4856 5.8595 10.5444 6.02106 10.5418H7.87496V16.423C7.87523 16.4671 7.86616 16.5108 7.84835 16.5511C7.83055 16.5915 7.8044 16.6276 7.77164 16.6571C7.73887 16.6866 7.70023 16.7089 7.65826 16.7224C7.61628 16.7359 7.57192 16.7404 7.52809 16.7355C5.50415 16.4891 3.6465 15.4917 2.32283 13.9409C0.999171 12.3901 0.305968 10.3989 0.380433 8.36132C0.536683 4.14257 3.95387 0.712883 8.17575 0.548821C9.26878 0.506481 10.3591 0.685032 11.3816 1.07379C12.404 1.46255 13.3376 2.05354 14.1263 2.8114C14.9151 3.56925 15.5429 4.47842 15.9723 5.4845C16.4016 6.49059 16.6236 7.57293 16.625 8.66679Z" fill="currentColor"/>
</symbol></defs>
<!-- envelop -->
<defs>
 <symbol id="enveloppe" viewBox="0 0 32 33" fill="none" xmlns="http://www.w3.org/2000/svg">
<path d="M28 6.66675H4C3.73478 6.66675 3.48043 6.77211 3.29289 6.95964C3.10536 7.14718 3 7.40153 3 7.66675V24.6667C3 25.1972 3.21071 25.7059 3.58579 26.081C3.96086 26.456 4.46957 26.6667 5 26.6667H27C27.5304 26.6667 28.0391 26.456 28.4142 26.081C28.7893 25.7059 29 25.1972 29 24.6667V7.66675C29 7.40153 28.8946 7.14718 28.7071 6.95964C28.5196 6.77211 28.2652 6.66675 28 6.66675ZM12.3387 16.6667L5 23.393V9.9405L12.3387 16.6667ZM13.8188 18.023L15.3188 19.4042C15.5032 19.5736 15.7446 19.6676 15.995 19.6676C16.2454 19.6676 16.4868 19.5736 16.6712 19.4042L18.1712 18.023L25.4212 24.6667H6.57125L13.8188 18.023ZM19.6612 16.6667L27 9.93925V23.3942L19.6612 16.6667Z" fill="currentColor"/>
</symbol></defs>
<!-- fleche vers le haut droite -->
<defs>
 <symbol id="arrowUpRight" viewBox="0 0 22 22" fill="none" xmlns="http://www.w3.org/2000/svg">
<path d="M21.6937 2.73946C21.6937 2.73946 21.6937 2.74883 21.6937 2.75352L16.2374 20.7479C16.1548 21.0402 15.9848 21.3002 15.7502 21.4931C15.5156 21.6859 15.2276 21.8024 14.9249 21.827C14.8818 21.8307 14.8387 21.8326 14.7955 21.8326C14.5119 21.8335 14.2338 21.7532 13.9943 21.6012C13.7548 21.4492 13.5637 21.2318 13.4437 20.9748L10.0312 13.9716C9.99703 13.9015 9.98563 13.8224 9.99857 13.7454C10.0115 13.6684 10.0481 13.5974 10.1034 13.5423L15.5334 8.11227C15.6681 7.97047 15.7421 7.78166 15.7396 7.58609C15.7371 7.39052 15.6583 7.20366 15.52 7.06536C15.3817 6.92706 15.1948 6.84825 14.9992 6.84575C14.8037 6.84325 14.6148 6.91724 14.473 7.05196L9.04024 12.482C8.98508 12.5372 8.91407 12.5738 8.8371 12.5867C8.76013 12.5997 8.68104 12.5883 8.61086 12.5541L1.60117 9.14258C1.32707 9.01108 1.09939 8.79939 0.948314 8.53556C0.797238 8.27173 0.729895 7.96823 0.75521 7.66527C0.780525 7.3623 0.897302 7.07418 1.09007 6.83909C1.28283 6.60399 1.54248 6.43302 1.83461 6.34883L19.829 0.89258H19.8431C20.0993 0.8206 20.37 0.818077 20.6275 0.885269C20.885 0.952461 21.12 1.08695 21.3083 1.27493C21.4967 1.46292 21.6317 1.69764 21.6994 1.955C21.7671 2.21236 21.7651 2.48311 21.6937 2.73946Z" fill="currentColor"/>
</symbol></defs>
<!-- youtube -->
<defs>
 <symbol id="youtube" viewBox="0 0 19 15" fill="none" xmlns="http://www.w3.org/2000/svg">
<path d="M17.807 3.01377C17.7334 2.72576 17.5924 2.45938 17.3955 2.23661C17.1987 2.01384 16.9517 1.84106 16.675 1.73252C13.9969 0.698147 9.73438 0.707523 9.5 0.707523C9.26562 0.707523 5.00312 0.698147 2.325 1.73252C2.04825 1.84106 1.80128 2.01384 1.60445 2.23661C1.40762 2.45938 1.26658 2.72576 1.19297 3.01377C0.990625 3.79346 0.75 5.21846 0.75 7.58252C0.75 9.94658 0.990625 11.3716 1.19297 12.1513C1.26647 12.4394 1.40746 12.706 1.6043 12.9289C1.80113 13.1518 2.04816 13.3247 2.325 13.4333C4.89062 14.4231 8.90625 14.4575 9.44844 14.4575H9.55156C10.0938 14.4575 14.1117 14.4231 16.675 13.4333C16.9518 13.3247 17.1989 13.1518 17.3957 12.9289C17.5925 12.706 17.7335 12.4394 17.807 12.1513C18.0094 11.37 18.25 9.94658 18.25 7.58252C18.25 5.21846 18.0094 3.79346 17.807 3.01377ZM12.0461 8.0919L8.92109 10.2794C8.82761 10.3449 8.71799 10.3835 8.6041 10.3911C8.49022 10.3987 8.37643 10.375 8.27508 10.3225C8.17373 10.27 8.08868 10.1908 8.02917 10.0934C7.96966 9.99599 7.93796 9.88416 7.9375 9.77002V5.39502C7.93753 5.28069 7.96893 5.16855 8.02827 5.07082C8.0876 4.97309 8.17261 4.89351 8.27404 4.84074C8.37547 4.78798 8.48943 4.76404 8.60352 4.77155C8.71761 4.77905 8.82745 4.8177 8.92109 4.8833L12.0461 7.0708C12.1283 7.12845 12.1954 7.20505 12.2417 7.29412C12.2881 7.3832 12.3123 7.48212 12.3123 7.58252C12.3122 7.68292 12.2881 7.78185 12.2417 7.87092C12.1954 7.95999 12.1283 8.0366 12.0461 8.09424V8.0919Z" fill="currentColor"/>
</symbol></defs>

</svg>
